<svg xmlns="http://www.w3.org/2000/svg" width="204.437" height="133.429" viewBox="0 0 204.437 133.429">
  <g id="Layer_2" data-name="Layer 2" transform="translate(-110.635 -125.884)">
    <path id="Path_1" data-name="Path 1" d="M228.74,166.765a34.446,34.446,0,0,0-5.342-1.479,50.333,50.333,0,0,0,7.418-3.279c7.576-4.158,11.581-9.488,11.581-15.414,0-10.011-8.88-20.709-33.8-20.709-21.9,0-31,11.087-31,17.022,0,1.747.634,10.462,13.14,10.462,4.44,0,7.328-1.09,8.582-3.238,1.644-2.814-.248-6.232-.329-6.376a.9.9,0,0,0-1.563.879c.015.027,1.468,2.679.34,4.6-.9,1.531-3.331,2.341-7.03,2.341-10.528,0-11.346-6.634-11.346-8.668,0-2.21,1.722-5.987,6.575-9.358,3.856-2.678,10.912-5.871,22.629-5.871,23.6,0,32.006,9.772,32.006,18.916,0,12.779-21.328,18.1-21.544,18.151a.9.9,0,0,0,.155,1.766c.175.011,17.474,1.214,17.474,11.588,0,5.085-7.488,13.182-16.363,13.182-4.189,0-8.569-1.95-13.205-4.015-.9-.4-1.812-.807-2.727-1.2a49.635,49.635,0,0,0,4.5-6.883,57.275,57.275,0,0,0,4.239-11.175c.651-2.276,1.925-7.452,2.024-7.828a7.027,7.027,0,0,1,1.008-2.218,6.886,6.886,0,0,1,.536-.7,11.759,11.759,0,0,1,1.831-1.582c5.222-3.71,5.307-15.98,5.308-16.5a.9.9,0,0,0-.894-.9h0a.9.9,0,0,0-.9.895c0,.118-.081,11.865-4.554,15.042a14.359,14.359,0,0,0-1.327,1.062c1.772-8.793,2.76-16.346,2.838-16.952a.9.9,0,0,0-1.779-.23c-.019.148-1.005,7.686-2.773,16.521a13.4,13.4,0,0,0-1.26-2.092c-2.522-3.456-.189-11.68.943-14.615a.927.927,0,0,0-.357-1.133.9.9,0,0,0-1.3.443c-.18.463-4.366,11.388-.735,16.363a10.3,10.3,0,0,1,1.59,3.04,6.553,6.553,0,0,1,.094,2.825c-1.6,7.14-3.666,14.409-6.105,18.867a47.757,47.757,0,0,1-4.595,7.045,31.578,31.578,0,0,0-11.874-2.786c-6.462,0-9.738,2.173-9.738,6.457,0,3.96,3.426,5.371,6.633,5.371,5.536,0,10.482-1.357,15.442-6.906,1.076.457,2.144.932,3.2,1.4,4.816,2.145,9.364,4.171,13.935,4.171,9.352,0,18.157-8.437,18.157-14.976C238.482,173.055,235.113,169.136,228.74,166.765Zm-41,25.846c-1.455,0-4.839-.349-4.839-3.578,0-3.182,2.524-4.663,7.944-4.663a29.067,29.067,0,0,1,10.625,2.424A17.6,17.6,0,0,1,187.744,192.611Z" fill="#faaa35"/>
    <path id="Path_2" data-name="Path 2" d="M311.789,230.268c-1.7,0-2.768-.989-2.768-3.125v-12.1h5.418V213.42h-5.418v-6.249H308.7a14.351,14.351,0,0,1-7.514,6.486v1.384h2.887v12.616c0,3.678,1.859,5.933,5.062,5.933a6.327,6.327,0,0,0,5.933-4.311,6.382,6.382,0,0,1-3.283.989m-19.834,3.322c3.955,0,7.633-1.939,7.633-6.328,0-2.967-1.74-4.865-6.209-6.407-3.125-1.068-5.26-1.7-5.26-3.639,0-1.661,1.582-2.531,3.283-2.531,2.689,0,5.141,2.373,7.237,4.865h.158v-4.826a18.282,18.282,0,0,0-6.96-1.542c-4.628,0-7.871,2.175-7.871,5.853,0,3.2,2.452,4.944,6.526,6.368,3.243,1.107,5.141,1.819,5.141,3.8,0,1.9-1.7,2.807-3.361,2.807-2.967,0-5.616-2.926-7.792-5.259h-.158v5.062a20.721,20.721,0,0,0,7.633,1.78m-17.7-20.17h-5.893v.158a24.147,24.147,0,0,1,.949,5.813v7.871a24.137,24.137,0,0,1-.949,5.813v.159h6.8v-.159a27.043,27.043,0,0,1-.91-5.813v-9.215c2.571-2.1,5.458-.989,7.2.711h.158l.752-5.378c-3.8-1.226-6.605.751-8.108,3.6Zm-18.015,18.666c-3.164,0-4.548-4.35-4.548-8.819,0-4.39,1.424-8.622,4.548-8.622,3.085,0,4.588,4.193,4.588,8.622,0,4.509-1.5,8.819-4.588,8.819m0,1.5c5.418,0,10.085-3.639,10.085-10.323,0-6.6-4.667-10.085-10.085-10.085-5.458,0-10.045,3.481-10.045,10.085,0,6.684,4.587,10.323,10.045,10.323m-13.15-13.724c0-4.667-3.085-6.684-6.486-6.684a7.859,7.859,0,0,0-6.368,3.481V203.73l-5.971.752v.158a18.519,18.519,0,0,1,1.068,5.694v16.928a26.4,26.4,0,0,1-.949,5.813v.159h6.8v-.159a24.071,24.071,0,0,1-.95-5.813v-9.413a6.7,6.7,0,0,1,3.995-1.5c2.1,0,3.955,1.187,3.955,4.153v6.763a26.339,26.339,0,0,1-.949,5.813v.159h6.8v-.159a24.137,24.137,0,0,1-.949-5.813Zm-22.638,0c0-4.667-3.085-6.684-6.486-6.684a7.491,7.491,0,0,0-6.367,3.639v-3.4h-5.893v.158a24.146,24.146,0,0,1,.949,5.813v7.871a24.136,24.136,0,0,1-.949,5.813v.159h6.8v-.159a27.126,27.126,0,0,1-.909-5.813v-9.215a6.433,6.433,0,0,1,4.152-1.74c1.978.039,3.8,1.226,3.8,4.192v6.763a26.339,26.339,0,0,1-.949,5.813v.159h6.8v-.159a24.137,24.137,0,0,1-.949-5.813Zm-29.632-5.221c2.729,0,3.8,2.927,3.876,6.249l-8.108.95v-.079c-.039-3.6,1.147-7.12,4.232-7.12m2.215,15.662c-4.113,0-6.091-3.164-6.407-7.475H199.68c0-5.141-2.769-9.65-8.78-9.65-5.616,0-9.689,3.876-9.689,10.164,0,6.724,4.746,10.244,9.65,10.244a9.3,9.3,0,0,0,8.661-5.775l-.158-.119a9.575,9.575,0,0,1-6.328,2.611m-15.751-.039c-1.7,0-2.769-.989-2.769-3.125v-12.1h5.419V213.42h-5.419v-6.249H174.2a14.354,14.354,0,0,1-7.514,6.486v1.384h2.887v12.616c0,3.678,1.859,5.933,5.062,5.933a6.328,6.328,0,0,0,5.933-4.311,6.385,6.385,0,0,1-3.283.989m-19.528,2.966h6.8v-.159a24.085,24.085,0,0,1-.949-5.813V213.42h-5.854v.158a24.081,24.081,0,0,1,.95,5.813v7.871a26.32,26.32,0,0,1-.95,5.813Zm3.2-23.414a3.249,3.249,0,0,0,3.243-3.2,3.244,3.244,0,0,0-6.486,0,3.249,3.249,0,0,0,3.243,3.2m-7.267,3.6H147.84v.158a26.332,26.332,0,0,1,.95,5.813V227.5c0,.4.039.791.079,1.226a6.98,6.98,0,0,1-4.153,1.622c-1.978,0-3.718-1.147-3.718-4.113V213.42h-5.892v.158a24.146,24.146,0,0,1,.949,5.813v7.475c0,4.667,3.085,6.684,6.486,6.684,2.847,0,4.864-1.464,6.447-3.8a16.611,16.611,0,0,0,.83,3.481h4.825v-.159a24.136,24.136,0,0,1-.949-5.813Zm-36.889,18.232V219.589l1.028-.04h3.638c3.876,0,6.17,2.492,6.17,6.21s-1.938,5.893-6.17,5.893Zm4.429-25.312c3.4,0,5.023,2.848,5.023,5.7,0,3.124-1.78,5.933-5.221,5.933h-4.231V206.34Zm4.944,12.26c2.926-.988,5.615-3.005,5.615-6.565,0-4.034-3.678-7.277-8.859-7.277h-12.3v.159a26.4,26.4,0,0,1,.949,5.813v16.532a26.4,26.4,0,0,1-.949,5.813v.159h12.576c5.3,0,9.888-2.531,9.888-7.435,0-4.232-3.4-6.329-6.921-7.2" fill="#fff"/>
    <g id="Group_2" data-name="Group 2" opacity="0.5">
      <g id="Group_1" data-name="Group 1">
        <path id="Path_3" data-name="Path 3" d="M264.308,255.637c.565,0,.726-.113.726-.323a9.6,9.6,0,0,1-.242-1.709v-.1c0-.323.017-.419.146-.548l1.176-1.145a.429.429,0,0,1,.242-.145c.065,0,.129.064.21.161l1.613,1.951c.564.693.661,1.016.661,1.242,0,.1-.017.177-.017.258,0,.322.162.355,1.016.355.742,0,.935-.033.935-.355,0-.258-.483-.371-1.306-1.355l-2.289-2.757a.345.345,0,0,1-.1-.21c0-.064.049-.129.145-.225l1.725-1.661c.92-.887,1.452-.952,1.452-1.209,0-.323-.161-.355-1.081-.355-.774,0-1,.032-1,.355,0,.064.016.129.016.209,0,.226-.1.532-.758,1.193l-2.209,2.226c-.193.193-.339.306-.468.306-.08,0-.113-.081-.113-.258v-7.692a.173.173,0,0,0-.193-.177,2.124,2.124,0,0,0-.484.081c-.338.1-.548.225-.548.4a11.039,11.039,0,0,1,.274,1.661V253.6a12.9,12.9,0,0,1-.177,1.709c0,.21.177.323.644.323m-4.548,3.676c.967,0,1.629-.6,1.629-2.1v-9.659a.174.174,0,0,0-.194-.177,2.155,2.155,0,0,0-.483.08c-.339.1-.549.226-.549.4a11.043,11.043,0,0,1,.274,1.66v7.692c0,.951-.322,1.29-.774,1.29-.242,0-.435-.162-.677-.162a.323.323,0,0,0-.355.323c0,.452.678.645,1.129.645m1.064-13.384a.751.751,0,0,0,.822-.741.84.84,0,0,0-1.66,0,.757.757,0,0,0,.838.741m-3.372,9.708c.468,0,.646-.113.646-.323a12.837,12.837,0,0,1-.178-1.709v-6.047a.173.173,0,0,0-.193-.177,2.169,2.169,0,0,0-.484.08c-.339.1-.548.226-.548.4a11.044,11.044,0,0,1,.274,1.66v4.08a9.6,9.6,0,0,1-.242,1.709c0,.21.161.323.725.323m-.1-9.708a.751.751,0,0,0,.822-.741.84.84,0,0,0-1.66,0,.757.757,0,0,0,.838.741m-2.92,7.676v-9.756a.174.174,0,0,0-.194-.177,2.118,2.118,0,0,0-.483.081c-.339.1-.549.225-.549.4a11.04,11.04,0,0,1,.274,1.661V253.6a12.906,12.906,0,0,1-.177,1.709c0,.21.177.323.645.323.484,0,.661-.113.661-.323a12.9,12.9,0,0,1-.177-1.709m-8.777-2.774a.076.076,0,0,1-.081-.08,2.5,2.5,0,0,1,2.613-2.564,2.3,2.3,0,0,1,2.386,2.564c0,.048-.016.08-.08.08Zm2.774,4.935a3.5,3.5,0,0,0,2.579-.968.45.45,0,0,0,.13-.323.344.344,0,0,0-.113-.257.329.329,0,0,0-.242-.1.64.64,0,0,0-.355.145,3.441,3.441,0,0,1-1.951.613,2.877,2.877,0,0,1-2.9-3.161c0-.064.033-.081.081-.081h5.579q.339,0,.339-.386c0-2.387-1.306-3.87-3.386-3.87-2.226,0-3.612,1.531-3.612,3.982,0,2.774,1.435,4.4,3.854,4.4m-11.149-.129c.564,0,.726-.113.726-.323a9.6,9.6,0,0,1-.242-1.709v-.1c0-.323.016-.419.145-.548l1.177-1.145a.426.426,0,0,1,.242-.145c.065,0,.129.064.21.161l1.612,1.951c.564.693.661,1.016.661,1.242,0,.1-.016.177-.016.258,0,.322.161.355,1.016.355.741,0,.935-.033.935-.355,0-.258-.483-.371-1.306-1.355l-2.289-2.757a.345.345,0,0,1-.1-.21c0-.064.048-.129.144-.225l1.726-1.661c.919-.887,1.451-.952,1.451-1.209,0-.323-.161-.355-1.08-.355-.774,0-1,.032-1,.355,0,.064.017.129.017.209,0,.226-.1.532-.758,1.193l-2.21,2.226c-.193.193-.338.306-.467.306-.081,0-.113-.081-.113-.258v-7.692a.173.173,0,0,0-.194-.177,2.14,2.14,0,0,0-.484.081c-.338.1-.548.225-.548.4a11.04,11.04,0,0,1,.274,1.661V253.6a12.906,12.906,0,0,1-.177,1.709c0,.21.177.323.645.323m-6.667-.678a1.534,1.534,0,0,1-1.677-1.548c0-1.209.79-1.644,2.725-1.644h1.354a.283.283,0,0,1,.323.322v.177a2.875,2.875,0,0,1-2.725,2.693m-.161.807a3.14,3.14,0,0,0,2-.662c.645-.516.694-.532.774-.532s.113.048.113.194a.907.907,0,0,0,.968,1c.37,0,.709-.146.709-.5a.3.3,0,0,0-.339-.306c-.274,0-.387-.1-.387-.58v-3.806c0-2.015-1.064-3.192-2.9-3.192a3.9,3.9,0,0,0-2.241.645c-.42.274-.71.6-.71.87a.424.424,0,0,0,.468.436c.645,0,.838-1.145,2.483-1.145,1.29,0,1.951.822,1.951,2.386,0,.258-.065.387-.323.387H231.5c-2.225,0-3.564.9-3.564,2.467a2.4,2.4,0,0,0,2.516,2.339m-14.7-.129c.564,0,.725-.113.725-.323a9.633,9.633,0,0,1-.241-1.709v-2.193c0-1.645,1.144-3.225,2.289-3.225,1.177,0,1.693.839,1.693,2.5V253.6a9.6,9.6,0,0,1-.242,1.709c0,.21.162.323.71.323.564,0,.725-.113.725-.323a9.632,9.632,0,0,1-.241-1.709v-2.193c0-1.645,1.161-3.225,2.305-3.225,1.161,0,1.677.839,1.677,2.5V253.6a9.6,9.6,0,0,1-.242,1.709c0,.21.162.323.726.323.468,0,.645-.113.645-.323a12.9,12.9,0,0,1-.177-1.709V250.67c0-2.064-.839-3.289-2.467-3.289-1.806,0-2.4,1.806-2.58,1.806-.049,0-.081-.065-.129-.194a2.2,2.2,0,0,0-2.242-1.612c-1.354,0-2.144,1.386-2.3,1.386-.113,0-.145-.064-.145-.338v-.871a.174.174,0,0,0-.194-.177,2.169,2.169,0,0,0-.484.08c-.338.1-.548.226-.548.4a11.044,11.044,0,0,1,.274,1.66v4.08a12.9,12.9,0,0,1-.177,1.709c0,.21.177.323.645.323m-6.318-.678a3.477,3.477,0,0,1-2.95-1.628c-.21-.258-.323-.291-.468-.291s-.242.049-.242.21a3.9,3.9,0,0,0,.468,1.387c.112.209.209.371.354.371.1,0,.226-.017.307-.017a6.936,6.936,0,0,0,2.531.775c2.193,0,3.645-1.323,3.645-2.951,0-1.742-.823-2.532-3.242-3.145-2.1-.532-2.805-1.1-2.805-2.241a2.1,2.1,0,0,1,2.305-1.983,3,3,0,0,1,2.693,1.306c.21.258.323.29.468.29s.242-.048.242-.209a2.746,2.746,0,0,0-.306-1.178c-.178-.371-.339-.58-.516-.58-.1,0-.226.016-.307.016a9.8,9.8,0,0,0-2.274-.451,3.018,3.018,0,0,0-3.257,2.757c0,1.644.887,2.5,3.322,3.112,2.193.548,2.725,1.032,2.725,2.354,0,1.1-1.064,2.1-2.693,2.1m-14.9.807c2.4,0,4.225-1.387,4.225-3.048a1.967,1.967,0,0,0-1.516-1.983c0-.049.048-.081.29-.21,1.742-.919,2.419-1.758,2.419-2.548a1.441,1.441,0,0,0-1.564-1.467,1.417,1.417,0,0,0-1.564,1.322c0,.371.177.613.451.613.242,0,.371-.161.436-.516a.691.691,0,0,1,.677-.613.607.607,0,0,1,.564.661c0,.581-.564,1.1-2.128,1.919-1.5.79-2.032,1.306-2.032,2.1,0,.388.178.629.452.629.209,0,.338-.177.4-.564.081-.452.37-.839.677-.839a1.494,1.494,0,0,1,1.435,1.436c0,1.257-1.354,2.3-3.225,2.3-1.918,0-3.273-1.112-3.273-2.709a2.581,2.581,0,0,1,2.79-2.564c.225,0,.354-.144.354-.4s-.112-.4-.354-.4a1.679,1.679,0,0,1-1.694-1.677,1.7,1.7,0,0,1,1.79-1.757,1.886,1.886,0,0,1,1.661.9c.145.209.258.29.436.29a.33.33,0,0,0,.306-.355c0-.838-1.177-1.644-2.4-1.644a2.546,2.546,0,0,0-2.789,2.467,1.991,1.991,0,0,0,1.144,1.9c.129.065.162.1.162.145,0,.065-.048.1-.178.129a3.013,3.013,0,0,0-2.225,2.967c0,2.048,1.79,3.516,4.273,3.516m-12.819,0c1.645,0,2.855-1,2.855-2.371,0-1.209-.662-1.838-2.435-2.289s-2.354-.823-2.354-1.549c0-.838.725-1.37,1.854-1.37a2.925,2.925,0,0,1,1.967.774c.258.193.322.29.435.29.145,0,.242-.048.242-.21a2.224,2.224,0,0,0-.29-.9c-.258-.484-.387-.549-.532-.549-.1,0-.226.016-.307.016a10.408,10.408,0,0,0-1.515-.225c-1.58,0-2.806.951-2.806,2.176,0,1.21.661,1.823,2.467,2.29,1.838.484,2.322.822,2.322,1.6,0,.919-.758,1.515-1.9,1.515a3.335,3.335,0,0,1-2.354-1.1c-.242-.226-.322-.274-.435-.274-.145,0-.242.048-.242.209a3.047,3.047,0,0,0,.29,1.048c.129.258.258.452.4.452.1,0,.226-.016.307-.016a8.32,8.32,0,0,0,2.031.484m-8.083-.129c.564,0,.726-.113.726-.323a9.6,9.6,0,0,1-.242-1.709v-2.339c0-1.176.919-2.95,1.564-2.95.178,0,.226.129.274.29a.563.563,0,0,0,.6.484.787.787,0,0,0,.806-.839c0-.532-.4-.87-1.08-.87-1.387,0-1.822,1.386-2.016,1.386-.08,0-.145-.032-.145-.338v-.871a.174.174,0,0,0-.194-.177,2.163,2.163,0,0,0-.483.08c-.339.1-.549.226-.549.4a11.007,11.007,0,0,1,.275,1.66v4.08a12.836,12.836,0,0,1-.178,1.709c0,.21.178.323.645.323m-8.346-4.806a.076.076,0,0,1-.08-.08,2.5,2.5,0,0,1,2.612-2.564,2.3,2.3,0,0,1,2.386,2.564c0,.048-.016.08-.081.08Zm2.774,4.935a3.5,3.5,0,0,0,2.579-.968.449.449,0,0,0,.129-.323.343.343,0,0,0-.112-.257.327.327,0,0,0-.242-.1.643.643,0,0,0-.355.145,3.439,3.439,0,0,1-1.951.613,2.877,2.877,0,0,1-2.9-3.161c0-.064.032-.081.08-.081h5.579q.339,0,.339-.386c0-2.387-1.306-3.87-3.386-3.87-2.225,0-3.612,1.531-3.612,3.982,0,2.774,1.435,4.4,3.854,4.4m-8.687-.129a.5.5,0,0,0,.549-.323l3.1-8.53c.435-1.209.79-1.4.79-1.661,0-.322-.129-.355-.645-.355-.581,0-.758.033-.758.355,0,.113.032.21.032.387a4.112,4.112,0,0,1-.306,1.306l-2.322,6.515c-.162.451-.242.6-.387.6s-.242-.129-.452-.725l-2.241-6.386a4.2,4.2,0,0,1-.306-1.306c0-.177.032-.274.032-.387,0-.322-.145-.355-.742-.355-.613,0-.79.033-.79.355,0,.258.355.452.79,1.661l3.1,8.53c.1.258.274.323.564.323" fill="#fff"/>
      </g>
    </g>
  </g>
</svg>
