<?xml version="1.0" encoding="UTF-8"?>
<svg width="69px" height="69px" viewBox="0 0 69 69" version="1.1" xmlns="http://www.w3.org/2000/svg" xmlns:xlink="http://www.w3.org/1999/xlink">
    <!-- Generator: Sketch 52.6 (67491) - http://www.bohemiancoding.com/sketch -->
    <title>logo</title>
    <desc>Created with Sketch.</desc>
    <g id="Home" stroke="none" stroke-width="1" fill="none" fill-rule="evenodd">
        <g id="Home-" transform="translate(-215.000000, -26.000000)" fill="#FA9519">
            <g id="Navbar">
                <g id="logo" transform="translate(215.000000, 26.000000)">
                    <g id="logo-icon">
                        <g id="logo">
                            <path d="M34.20905,-1.42108547e-14 C15.379699,-1.42108547e-14 4.26325641e-14,15.3317871 4.26325641e-14,34.20905 C4.26325641e-14,53.086313 15.3317871,68.4181001 34.20905,68.4181001 C53.086313,68.4181001 68.4181001,53.086313 68.4181001,34.20905 C68.4181001,15.3317871 53.086313,-1.42108547e-14 34.20905,-1.42108547e-14 Z M50.7865449,35.1193749 C49.6845727,36.1255234 48.6784242,37.131672 47.5285401,38.2336442 L45.6120667,40.1022057 C43.4081223,42.2582383 41.5395608,43.2643868 38.3294678,42.4977975 C38.1857323,42.641533 37.994085,42.8331803 37.8503495,42.9769158 C38.0419968,43.0727395 38.2336442,43.1685632 38.3773797,43.3122987 C40.7250596,45.6599786 43.0727395,48.0076585 45.4204194,50.4032502 L50.5948976,55.6256402 C50.9781922,56.0089349 51.4573106,56.5838769 51.4573106,57.3983781 C51.4573106,58.308703 50.8344567,58.9315568 50.5948976,59.1232041 L49.7803964,59.9377053 C49.013807,60.7042947 48.4867768,61.2792367 47.6243638,61.2792367 C47.6243638,61.2792367 47.6243638,61.2792367 47.6243638,61.2792367 C46.7619508,61.2792367 46.2349206,60.7042947 45.5641549,59.9856172 C45.3725076,59.746058 45.0850365,59.5064988 44.7975655,59.171116 C42.1624146,56.5359651 39.5751755,53.9008142 36.9400246,51.2177514 L33.921579,48.151394 C33.6820199,47.9597466 33.5382844,47.7201875 33.3945489,47.5285401 C30.1844559,50.8344567 26.974363,54.1403733 23.7163582,57.3983781 L21.2728547,59.8418817 C20.5541771,60.5605592 20.0271469,61.0875894 19.1647339,61.0875894 C19.1647339,61.0875894 19.1647339,61.0875894 19.1647339,61.0875894 C18.3023209,61.0875894 17.7752907,60.5605592 17.0566132,59.7939698 L16.4816712,59.2190278 C15.7629936,58.5003503 15.1880516,57.9733201 15.2359635,57.0629952 C15.2359635,56.1526704 15.8109055,55.6256402 16.7691422,54.7153153 C17.2003487,54.2841088 17.7752907,53.7570786 18.5418801,52.9425775 C20.9374718,50.4032502 23.2372399,48.1034821 25.4411843,45.8995377 C25.9203026,45.4204194 26.399421,44.8933892 26.9264512,44.4142709 L26.686892,44.2705354 L23.8600937,41.4437371 C21.5603257,39.143969 19.3084694,36.8921128 17.104525,34.4965211 C14.3735504,31.5259873 13.7506966,27.9325997 15.3317871,24.0996529 C15.5234345,23.6205346 15.954641,22.5664742 17.0087014,22.3748269 C18.0627617,22.1352677 18.8772629,22.9976807 19.2605576,23.3809754 L23.8600937,28.0763352 C27.3576577,31.621811 30.8552216,35.2151986 34.4006974,38.7606744 C34.8798157,39.2397927 35.1193749,39.6709992 35.2631104,40.1501176 C35.2631104,40.1501176 35.8859643,39.5272637 36.2692589,39.0960572 C37.419143,37.8503495 38.4732033,38.1857323 38.4732033,38.1857323 L39.5272637,38.569027 C40.4855004,39.0002335 41.3958253,38.8085862 42.2582383,38.0419968 C42.4498856,37.8503495 42.641533,37.6587022 42.8331803,37.4670548 C42.641533,37.3233193 42.4019738,37.131672 42.2103265,36.8921128 C41.5874726,36.1734353 41.1562661,35.5984933 41.0125306,35.0714631 C40.1980294,34.9277276 39.6709992,34.3048737 39.4793519,34.1132264 C38.0419968,32.5321358 37.706614,31.621811 39.2877045,30.0886323 L41.4916489,27.9805115 C41.0125306,28.3158944 40.4375886,28.5075417 39.8147347,28.5075417 L28.5554535,28.5075417 C26.8785393,28.5075417 25.5370079,27.1660103 25.5370079,25.4411843 L25.5370079,18.7335274 C22.7581215,17.8711144 20.7937363,15.1880516 20.7937363,12.2175179 C20.8416481,8.91160127 23.3330635,6.03689118 26.5910683,5.60568467 C27.5013932,5.46194917 28.411718,5.509861 29.2741311,5.74942018 C31.8134583,3.06635743 36.5088181,3.06635743 39.0481454,5.74942018 C39.0960572,5.74942018 39.143969,5.70150834 39.2397927,5.70150834 C41.0125306,5.27030183 42.929004,5.60568467 44.5100945,6.65974504 C46.0911851,7.7138054 47.1452454,9.34280779 47.4327165,11.1634575 C47.9597466,14.5651978 45.9953614,17.679467 42.7852685,18.7335274 L42.7852685,25.1058014 C42.7852685,25.4411843 42.7852685,25.7286553 42.7373566,26.0640381 C42.641533,26.5431565 42.4019738,26.9264512 42.1624146,27.261834 C43.0248277,26.4952446 44.078888,26.4473328 44.7975655,26.974363 L45.7078904,26.0161263 C47.1452454,24.5787713 48.6305123,24.5308594 50.0199555,25.9203026 C50.5948976,26.4952446 50.9302804,27.0701867 51.0261041,27.6930405 C51.8885171,27.836776 52.5113709,28.4596299 52.7030183,28.6512772 C53.1821366,29.1303956 53.8049905,29.8969849 53.7570786,30.9031334 C53.7091668,32.4363122 52.6071946,33.4903725 50.7865449,35.1193749 Z" id="Shape" fill-rule="nonzero"></path>
                            <g id="Group" transform="translate(15.123288, 4.726027)">
                                <g transform="translate(0.000000, 18.685616)" id="Path">
                                    <path d="M36.3171708,6.22853852 C35.4547578,5.3661255 34.8319039,5.41403733 33.8736672,6.42018586 C32.3404885,7.95336458 30.8552216,9.48654329 29.3220429,11.019722 C29.1303956,11.2113693 28.8429246,11.3551048 28.5554535,11.5467522 C28.5075417,11.4509285 28.411718,11.3551048 28.3638062,11.307193 C28.6033654,11.0676338 28.7950127,10.7801628 29.0824837,10.5406037 C30.6156624,9.00742494 32.1488412,7.47424623 33.634108,5.94106752 C34.4965211,5.03074265 34.4965211,4.4078888 33.634108,3.54547578 C32.771695,2.68306275 32.196753,2.68306275 31.2864281,3.64129944 C29.7053376,5.22238999 28.124247,6.80348054 26.5431565,8.38457109 C26.3515091,8.57621843 26.11195,8.71995393 25.8723908,8.86368944 C25.7765671,8.76786577 25.7286553,8.6720421 25.6328316,8.57621843 C25.8723908,8.33665926 26.0640381,8.04918825 26.3035973,7.80962907 C26.9264512,7.18677522 27.9805115,6.08480302 28.5554535,5.509861 C28.7950127,5.27030183 28.7950127,4.93491898 28.5554535,4.69535981 C28.3158944,4.45580064 27.9805115,4.45580064 27.7888642,4.69535981 C27.0701867,5.3661255 25.6328316,6.80348054 24.7704186,7.61798173 C23.8600937,8.52830659 23.9080056,8.52830659 25.0099778,9.72610246 C25.7286553,10.4926918 26.2077736,10.3968682 26.9264512,9.67819063 C28.7471009,7.80962907 30.6635743,6.03689118 32.6279595,4.12041779 C32.7237832,4.21624146 32.9154305,4.4078888 33.2987252,4.74327165 C31.33434,6.65974504 29.4657784,8.38457109 27.5972168,10.2052208 C26.5431565,11.2113693 26.6389801,11.2113693 27.7888642,12.5049889 C28.6512772,13.4632256 29.1303956,12.8882836 29.7532494,12.2654297 C31.5259873,10.4926918 33.346637,8.71995393 35.2151986,6.89930421 C35.3589341,7.04303972 35.5026696,7.23468706 35.8859643,7.61798173 C33.1549897,10.3010445 30.4719269,12.9361954 27.7409524,15.5234345 C26.5431565,16.6733185 25.0099778,17.0087014 23.4767991,16.2900238 C23.3809754,16.242112 23.2851517,16.1942002 23.189328,16.1942002 C22.4227387,15.7629936 21.9436203,16.3379357 21.4165902,16.8649659 C15.8588173,22.5185624 10.2531326,28.1721589 4.69535981,33.8257554 C4.4078888,34.1132264 4.2641533,34.4965211 3.97668229,34.9277276 C3.40174027,34.3527856 3.06635743,34.0174027 2.68306275,33.634108 C3.11426926,33.2029015 3.40174027,32.8675187 3.73712311,32.5321358 C8.48039476,27.6930405 13.1757546,22.8060334 17.9669381,17.9669381 C18.6377037,17.2961724 18.6377037,16.817054 17.9669381,16.1462883 C12.8882836,11.019722 7.85754091,5.89315568 2.82679825,0.766589357 C1.96438523,-0.0958236696 1.62900238,-0.0479118348 1.14988404,1.05406037 C-0.191647339,4.35997697 0.287471009,7.37842256 2.68306275,9.96566164 C5.79733201,13.2715782 9.05533678,16.4816712 12.2175179,19.6917641 C12.2654297,19.7396759 12.3612534,19.7396759 12.5049889,19.7396759 C12.6966362,19.5001168 12.9361954,19.2605576 13.4153137,18.6856156 C10.3489563,15.7629936 7.28259889,12.8882836 4.31206513,9.96566164 C3.49756394,9.15116045 2.77888642,8.19292375 2.25185624,7.18677522 C1.38944321,5.509861 1.38944321,3.73712311 2.10812073,1.77273789 C7.18677522,6.94721605 12.1216942,11.9779587 17.104525,17.0566132 C16.4816712,17.7273789 16.1462883,18.0148499 15.5234345,18.6377037 C11.9300469,22.3748269 8.19292375,25.9682145 4.07250596,30.3281914 C0.622853852,33.9694909 0.383294678,32.9154305 2.63515091,35.2631104 C3.78503495,36.4129944 3.78503495,36.4129944 4.88700715,35.3110222 C10.5885155,29.5616021 16.242112,23.8121819 21.9436203,18.0627617 C22.2310913,17.7752907 22.8539452,17.4878197 23.2372399,17.5836434 C25.824479,18.2064972 27.1660103,17.5836434 29.2262192,15.5713463 C31.1426926,13.7027848 32.7237832,12.0737824 34.4006974,10.5406037 C37.0837601,8.24083559 37.6107903,7.52215806 36.3171708,6.22853852 Z"></path>
                                    <path d="M31.3822518,33.921579 C27.7409524,30.1844559 24.0517411,26.4952446 20.3625298,22.8060334 C20.1229706,22.5664742 19.8834114,22.2790032 19.5959404,22.1352677 C19.4042931,22.039444 19.0689103,22.0873558 18.9251747,22.2310913 C18.7814392,22.3748269 18.7814392,22.7102097 18.8293511,22.901857 C18.9730866,23.189328 19.2605576,23.4288872 19.5001168,23.6684464 C23.0935044,27.3097458 26.686892,30.9989571 30.3281914,34.6402566 C32.5800477,36.8921128 31.8134583,36.8921128 34.20905,34.5923447 C34.8319039,34.0174027 34.7360802,33.5861962 34.1611382,33.0112542 C30.0886323,28.9387482 26.0161263,24.8183304 21.9436203,20.6979126 C21.6561493,20.4104416 21.1291191,20.4104416 20.7458245,20.2667061 C20.88956,20.6979126 20.88956,21.2728547 21.177031,21.5603257 C24.4350357,24.9141541 27.6930405,28.2200707 30.9510453,31.5259873 C31.6697228,32.2446648 32.484224,32.9154305 33.346637,33.7299317 C32.8675187,34.1611382 32.5800477,34.4965211 32.1009293,34.9277276 C31.909282,34.5444329 31.6697228,34.20905 31.3822518,33.921579 Z"></path>
                                </g>
                                <path d="M11.2113693,12.7924599 C11.4030167,12.8403717 11.4509285,12.8882836 11.4509285,13.0799309 C11.4509285,15.6192581 11.4509285,18.1106736 11.4509285,20.6500008 C11.4509285,21.6082375 12.169606,22.326915 13.0799309,22.326915 C16.817054,22.326915 20.602089,22.326915 24.3392121,22.326915 C25.1058014,22.326915 25.7765671,21.7998848 25.9203026,21.0332955 C25.9682145,20.7937363 25.9682145,20.5541771 25.9682145,20.314618 C25.9682145,17.9190262 25.9682145,15.5234345 25.9682145,13.1278427 C25.9682145,12.9361954 26.0161263,12.8882836 26.2077736,12.8403717 C29.2262192,12.2654297 31.0947808,9.58236696 30.6156624,6.56392137 C30.1365441,3.54547578 27.0222748,1.48526688 24.0996529,2.2039444 C23.7642701,2.29976807 23.4767991,2.39559174 23.1414162,2.49141541 C20.9374718,-0.574942018 16.4816712,-0.574942018 14.2777268,2.49141541 C13.3194901,2.10812073 12.3612534,1.96438523 11.307193,2.10812073 C8.71995393,2.49141541 6.70765687,4.74327165 6.70765687,7.37842256 C6.65974504,10.1093971 8.57621843,12.4091652 11.2113693,12.7924599 Z M24.5787713,20.6500008 C24.5787713,20.8416481 24.4350357,20.88956 24.2433884,20.88956 C23.2372399,20.88956 22.2790032,20.88956 21.2728547,20.88956 C18.5897919,20.88956 15.9067292,20.88956 13.2236664,20.88956 C12.8882836,20.88956 12.8403717,20.8416481 12.8403717,20.5062653 C12.8403717,20.0750588 12.8403717,19.6917641 12.8403717,19.2605576 C16.7691422,19.2605576 20.6500008,19.2605576 24.5787713,19.2605576 C24.5787713,19.7396759 24.5787713,20.2187943 24.5787713,20.6500008 Z M9.72610246,4.2641533 C11.0676338,3.25800477 12.5529007,3.21009293 14.0381676,4.02459412 C14.4214623,4.21624146 14.8526688,4.21624146 15.092228,3.73712311 C15.8109055,2.39559174 17.0087014,1.67691422 18.5418801,1.62900238 C20.0750588,1.62900238 21.2728547,2.29976807 22.0873558,3.64129944 C22.1352677,3.68921128 22.1352677,3.73712311 22.1831795,3.78503495 C22.4227387,4.16832963 22.7581215,4.2641533 23.189328,4.02459412 C24.4350357,3.3059166 25.7286553,3.25800477 27.0222748,3.92877045 C28.5075417,4.69535981 29.3699547,6.32436219 29.1783074,7.95336458 C28.9387482,9.7740143 27.7888642,11.1155457 26.11195,11.4509285 C25.0099778,11.6904877 23.9559174,11.4988404 22.9976807,10.7801628 C22.6622979,10.5406037 22.4227387,10.5406037 22.1352677,10.6843392 C21.6561493,10.9718102 21.6561493,11.5467522 22.1352677,11.882135 C22.8539452,12.3612534 23.6205346,12.6966362 24.4350357,12.8403717 C24.4829476,12.8403717 24.4829476,12.8403717 24.5308594,12.8403717 C24.5308594,14.5172859 24.5308594,16.1462883 24.5308594,17.8232025 C23.4288872,17.8232025 22.3748269,17.8232025 21.2249428,17.8232025 C21.2249428,17.7273789 21.2249428,17.679467 21.2249428,17.5836434 C21.2249428,16.7212303 21.2249428,15.9067292 21.2249428,15.0443161 C21.2249428,14.6610214 20.9374718,14.3735504 20.602089,14.3256386 C20.2667061,14.2777268 19.9313233,14.5651978 19.8354996,14.9005806 C19.8354996,14.9964043 19.8354996,15.092228 19.8354996,15.1880516 C19.8354996,16.0025528 19.8354996,16.7691422 19.8354996,17.5836434 C19.8354996,17.679467 19.8354996,17.7752907 19.8354996,17.8711144 C19.0689103,17.8711144 18.3023209,17.8711144 17.4878197,17.8711144 C17.4878197,17.7752907 17.4878197,17.679467 17.4878197,17.6315552 C17.4878197,16.817054 17.4878197,16.0504647 17.4878197,15.2359635 C17.4878197,15.092228 17.4878197,14.9964043 17.4399079,14.8526688 C17.3440842,14.5651978 17.0566132,14.3256386 16.7691422,14.3735504 C16.4816712,14.3735504 16.1942002,14.6131096 16.0983765,14.9005806 C16.0504647,14.9964043 16.0504647,15.1401398 16.0504647,15.2359635 C16.0504647,16.0504647 16.0504647,16.817054 16.0504647,17.6315552 C16.0504647,17.7273789 16.0504647,17.8232025 16.0504647,17.9190262 C14.9484925,17.9190262 13.8465203,17.9190262 12.7445481,17.9190262 C12.7445481,17.8232025 12.7445481,17.7752907 12.7445481,17.679467 C12.7445481,16.1462883 12.7445481,14.6131096 12.7445481,13.0799309 C12.7445481,12.9361954 12.7924599,12.8882836 12.9361954,12.8403717 C13.7506966,12.6966362 14.5172859,12.4091652 15.1880516,11.9300469 C15.6192581,11.6425759 15.66717,11.2592812 15.4276108,10.8759865 C15.1880516,10.4926918 14.804757,10.4926918 14.3735504,10.7801628 C11.9779587,12.457077 8.6720421,11.1634575 8.09710008,8.33665926 C7.85754091,6.65974504 8.33665926,5.22238999 9.72610246,4.2641533 Z" id="Shape" fill-rule="nonzero"></path>
                            </g>
                        </g>
                    </g>
                </g>
            </g>
        </g>
    </g>
</svg>