<?xml version="1.0" standalone="no"?>
<!DOCTYPE svg PUBLIC "-//W3C//DTD SVG 1.1//EN" "http://www.w3.org/Graphics/SVG/1.1/DTD/svg11.dtd" >
<svg xmlns="http://www.w3.org/2000/svg">
<metadata>Generated by IcoMoon</metadata>
<defs>
<font id="icomoon" horiz-adv-x="1024">
<font-face units-per-em="1024" ascent="1024" descent="0" />
<missing-glyph horiz-adv-x="1024" />
<glyph unicode="&#x20;" d="" />
<glyph unicode="&#x41;" glyph-name="instagram" d="M741.423 1024c0 0-458.846 0-458.846 0-155.787 0-282.577-126.79-282.577-282.577 0 0 0-458.846 0-458.846 0-155.834 126.79-282.577 282.577-282.577 0 0 458.846 0 458.846 0 155.834 0 282.577 126.79 282.577 282.577 0 0 0 458.846 0 458.846 0 155.787-126.743 282.577-282.577 282.577 0 0 0 0 0 0M933.19 282.577c0-105.704-86.016-191.72-191.767-191.72 0 0-458.846 0-458.846 0-105.704 0-191.72 86.016-191.72 191.72 0 0 0 458.846 0 458.846 0 105.704 86.016 191.72 191.72 191.72 0 0 458.846 0 458.846 0 105.704 0 191.72-86.016 191.72-191.72 0 0 0-458.846 0-458.846s0.047 0 0.047 0c0 0 0 0 0 0M488.727 744.727c-141.126 0-256-114.827-256-256s114.874-256 256-256c141.173 0 256 114.828 256 256s-114.827 256-256 256c0 0 0 0 0 0M488.727 320.884c-92.532 0-167.843 75.311-167.843 167.843 0 92.579 75.311 167.843 167.843 167.843 92.579 0 167.89-75.264 167.89-167.843 0-92.532-75.311-167.843-167.89-167.843 0 0 0 0 0 0M768 837.818c-18.339 0-36.352-7.447-49.292-20.433-13.032-12.94-20.526-31-20.526-49.385 0-18.339 7.494-36.352 20.526-49.385 12.94-12.939 30.953-20.433 49.292-20.433 18.432 0 36.399 7.494 49.385 20.433 13.032 13.033 20.433 31.046 20.433 49.385 0 18.385-7.401 36.445-20.433 49.385-12.94 12.986-30.953 20.433-49.385 20.433 0 0 0 0 0 0" />
<glyph unicode="&#x42;" glyph-name="star" d="M512 191.846c0 0-316.475-166.346-316.475-166.346s60.442 352.362 60.442 352.362c0 0-255.967 249.52-255.967 249.52s353.795 51.454 353.795 51.454c0 0 158.205 320.578 158.205 320.578s158.205-320.578 158.205-320.578c0 0 353.795-51.454 353.795-51.454s-255.967-249.52-255.967-249.52c0 0 60.442-352.362 60.442-352.362s-316.475 166.346-316.475 166.346" />
<glyph unicode="&#x43;" glyph-name="location" d="M845.892 1024c-98.486 0-178.609-78.347-178.609-174.626 0-83.536 126.567-252.564 156.217-291.044 0-12.424 0-24.621-0.296-35.84-0.341-12.037 9.398-22.073 21.732-22.391 0.205 0 0.387 0 0.614 0 12.038 0 21.982 9.398 22.301 21.254 0.296 11.491 0.296 24.029 0.296 36.818 29.468 38.207 156.353 207.576 156.353 291.203 0 96.279-80.122 174.626-178.608 174.626 0 0 0 0 0 0M845.892 805.706c-24.622 0-44.647 19.592-44.647 43.668 0 24.052 20.025 43.645 44.647 43.645 24.621 0 44.646-19.57 44.646-43.645s-20.025-43.668-44.646-43.668c0 0 0 0 0 0M637.041 402.455c-33.382-16.93-51.951-46.331-63.010-66.97-4.847-9.011-0.592-19.82 9.489-24.121 2.822-1.229 5.803-1.775 8.738-1.775 7.532 0 14.769 3.778 18.25 10.263 14.063 26.192 28.399 41.961 46.535 51.177 9.717 4.916 13.13 15.952 7.601 24.645-5.507 8.692-17.818 11.741-27.603 6.781 0 0 0 0 0 0M467.285 113.892c-20.594-18.91-43.987-33.155-71.567-43.577-10.786-4.074-16.702-17.522-13.175-30.038 2.822-10.058 10.877-16.452 19.547-16.452 2.094 0 4.233 0.364 6.349 1.161 31.835 12.015 60.211 29.354 84.355 51.541 8.897 8.192 10.399 23.165 3.368 33.496-7.123 10.286-20.025 12.106-28.877 3.869 0 0 0 0 0 0M580.016 260.574c-12.834 4.050-27.102-1.115-32.063-11.514-11.105-23.348-25.008-50.563-43.736-75.503-7.123-9.512-3.436-21.914 8.237-27.717 4.051-2.002 8.488-2.958 12.903-2.958 8.351 0 16.498 3.436 21.163 9.648 20.775 27.671 35.749 56.958 47.65 81.966 4.938 10.377-1.411 22.050-14.154 26.078 0 0 0 0 0 0M848.736 473.042c-9.352 5.826-22.209 3.596-28.604-5.074-6.781-9.216-20.662-21.868-62.646-25.327-11.332-0.956-19.706-10.149-18.682-20.571 0.978-9.83 9.967-17.226 20.503-17.226 0.637 0 1.251 0 1.888 0.068 44.601 3.687 75.026 17.363 93.071 41.825 6.371 8.67 3.891 20.435-5.53 26.305 0 0 0 0 0 0M314.185 41.415c68.859 70.11 210.216 231.401 210.216 375.33 0 140.197-115.075 250.038-261.962 250.038-146.864 0-261.939-109.841-261.939-250.038 0-184.82 233.426-398.791 246.488-410.601 0 0 0.046-0.046 0.068-0.068 0.069-0.069 0.342-0.319 0.41-0.387 0.91-0.819 2.025-1.183 3.027-1.821 1.228-0.796 2.366-1.752 3.754-2.298 2.64-1.024 5.416-1.57 8.192-1.57 15.906 0 31.039 0.523 45.352 1.57 12.015 0.865 21.049 10.855 20.116 22.346-0.637 8.215-6.212 14.609-13.722 17.499 0 0 0 0 0 0M262.439 291.726c-72.226 0-130.958 56.070-130.958 125.019s58.732 125.019 130.958 125.019c72.226 0 130.981-56.069 130.981-125.019s-58.755-125.019-130.981-125.019c0 0 0 0 0 0" />
<glyph unicode="&#x44;" glyph-name="medal" d="M512 1024c-282.3 0-512-229.68-512-512s229.7-512 512-512c282.3 0 512 229.68 512 512s-229.7 512-512 512c0 0 0 0 0 0M761.129 549.612c0 0-90.792-88.488-90.792-88.488s21.463-125.022 21.463-125.022c6.559-38.151-33.668-66.817-67.544-49.049 0 0-112.256 58.992-112.256 58.992s-112.235-58.992-112.235-58.992c-34.104-17.893-74.083 11.105-67.544 49.070 0 0 21.442 125.001 21.442 125.001s-90.792 88.488-90.792 88.488c-27.587 26.902-12.268 73.876 25.801 79.397 0 0 125.478 18.225 125.478 18.225s56.128 113.709 56.128 113.709c16.979 34.519 66.465 34.56 83.465 0 0 0 56.107-113.709 56.107-113.709s125.499-18.225 125.499-18.225c38.069-5.521 53.367-52.495 25.78-79.397 0 0 0 0 0 0" />
<glyph unicode="&#x45;" glyph-name="check" d="M808.805 964.796c30.142 55.184 99.356 75.4 154.541 45.167 55.094-30.142 75.31-99.35 45.168-154.444 0 0-435.929-796.353-435.929-796.353-33.602-61.286-114.012-78.133-169.378-35.515-127.854 98.622-248.787 197.973-362.617 298.143-47.171 41.525-51.724 113.466-10.199 160.637 41.525 47.262 113.375 51.815 160.637 10.29 78.497-69.118 160.636-137.962 246.327-206.442 0 0 371.45 678.517 371.45 678.517s0 0 0 0" />
<glyph unicode="&#x46;" glyph-name="clock" d="M983.131 711.52c-53.976 125.861-145.727 217.407-272.657 271.542-63.42 27.056-129.889 40.869-199.316 40.869-69.404 0-135.373-13.699-198.747-40.869-125.861-53.999-218.021-145.476-272.088-271.542-27.102-63.169-40.323-129.32-40.323-198.747s13.221-136.146 40.323-199.316c54.067-126.088 146.227-218.112 272.088-272.111 63.374-27.17 129.343-40.846 198.747-40.846 69.427 0 135.896 13.813 199.316 40.846 126.908 54.136 218.658 146.25 272.657 272.111 27.193 63.374 40.869 129.889 40.869 199.316s-13.676 135.373-40.869 198.747c0 0 0 0 0 0M874.268 297.005c-38.001-65.786-90.021-117.988-155.579-156.581-65.127-38.343-136.511-57.708-213.22-57.708-57.662 0-112.708 11.218-165.091 34.201s-97.622 53.18-135.464 91.387c-37.82 38.206-67.948 84.332-90.454 137.33-22.459 52.815-33.336 109.021-33.336 167.276 0 77.482 18.841 149.208 56.615 214.812 37.911 65.832 89.953 118.079 155.034 156.558 65.058 38.48 135.964 57.731 212.673 57.731 76.732 0 148.094-19.365 213.243-57.731 65.536-38.57 117.464-90.817 155.557-156.558 38.092-65.718 57.139-137.33 57.139-214.812 0-77.506-18.91-149.709-57.117-215.905 0 0 0 0 0 0M543.63 521.739c0 0 0 265.17 0 265.17 0 15.861-15.109 28.672-32.472 28.672-16.225 0-30.788-12.811-30.788-28.672 0 0 0-269.266 0-269.266 0-0.501 1.115-2.572 1.115-4.096-1.115-9.216 1.684-16.885 8.397-23.052 0 0 167.412-153.053 167.412-153.053 11.196-10.24 31.926-10.24 43.122 0 12.857 11.787 12.015 28.854 0 39.936 0 0-156.786 144.361-156.786 144.361s0 0 0 0" />
<glyph unicode="&#x47;" glyph-name="sandwich" d="M1024.5 632.505c0 99.262-80.764 179.993-179.993 179.993 0 0-664.014 0-664.014 0-98.37 0-179.993-79.542-179.993-179.993 0-27.615 18.762-50.936 44.197-57.872-2.742-6.97-4.195-14.435-4.195-22.132 0-18.333 8.258-34.75 21.24-45.75-13.18-14.27-21.24-33.329-21.24-54.239 0-14.831 4.063-28.738 11.132-40.662-28.903-4.295-51.134-29.267-51.134-59.359 0-77.197 62.794-139.991 139.991-139.991 0 0 744.018 0 744.018 0 76.734 0 139.991 62.299 139.991 139.991 0 30.092-22.231 55.064-51.134 59.359 7.069 11.924 11.132 25.831 11.132 40.662 0 20.91-8.060 39.936-21.24 54.206 13.709 11.661 21.24 28.21 21.24 45.783 0 7.796-1.52 15.261-4.228 22.099 25.269 6.837 44.23 29.993 44.23 57.905 0 0 0 0 0 0M835.225 750.067c7.796-7.796 7.796-20.447 0-28.276-7.828-7.828-20.48-7.828-28.308 0 0 0-50.705 50.705-50.705 50.705s56.584 0 56.584 0c0 0 22.429-22.429 22.429-22.429s0 0 0 0M543.22 750.067c7.796-7.796 7.796-20.447 0-28.276-7.829-7.828-20.48-7.828-28.309 0 0 0-50.704 50.705-50.704 50.705s56.584 0 56.584 0c0 0 22.429-22.429 22.429-22.429s0 0 0 0M228.786 772.496c0 0 22.429-22.429 22.429-22.429 7.828-7.796 7.828-20.447 0-28.276-7.829-7.828-20.48-7.828-28.309 0 0 0-50.44 50.474-50.44 50.474 2.676 0.132 5.351 0.231 8.027 0.231 0 0 48.293 0 48.293 0s0 0 0 0M924.511 572.519c11.033 0 19.985-8.985 19.985-20.018s-8.952-19.984-19.985-19.984c0 0-824.022 0-824.022 0-11.033 0-19.985 8.951-19.985 19.984s8.952 20.018 19.985 20.018c0 0 824.022 0 824.022 0s0 0 0 0M904.494 412.51c0 0-223.695 0-223.695 0s80.004 80.004 80.004 80.004c0 0 143.691 0 143.691 0 22.065 0 40.002-17.969 40.002-40.002 0-22.065-17.937-40.002-40.002-40.002 0 0 0 0 0 0M392.494 340.797c0 0-151.717 151.717-151.717 151.717s303.434 0 303.434 0c0 0-151.717-151.717-151.717-151.717s0 0 0 0M120.506 412.51c-22.065 0-40.002 17.937-40.002 40.002 0 22.033 17.937 40.002 40.002 40.002 0 0 63.719 0 63.719 0s79.972-80.004 79.972-80.004c0 0-143.691 0-143.691 0s0 0 0 0M600.795 492.514c0 0 103.424 0 103.424 0s-151.717-151.717-151.717-151.717c0 0-51.728 51.696-51.728 51.696s100.021 100.021 100.021 100.021c0 0 0 0 0 0M984.498 352.491c0-6.772-0.694-13.444-2.015-19.985 0 0-229.971 0-229.971 0-11.065 0-20.017-8.952-20.017-20.017 0-11.033 8.952-19.952 20.017-19.952 0 0 212.001 0 212.001 0-18.564-24.708-48.028-40.035-80.004-40.035 0 0-744.018 0-744.018 0-55.131 0-99.989 44.858-99.989 99.989 0 11.032 8.952 20.017 19.985 20.017 0 0 243.712 0 243.712 0s74.157-74.157 74.157-74.157c7.829-7.796 20.48-7.796 28.276 0 0 0 65.866 65.866 65.866 65.866s65.866-65.866 65.866-65.866c7.796-7.796 20.48-7.796 28.276 0 0 0 74.157 74.157 74.157 74.157s323.716 0 323.716 0c11.033 0 19.985-8.985 19.985-20.017 0 0 0 0 0 0M964.513 612.521c0 0-904.026 0-904.026 0-11.033 0-19.985 8.951-19.985 19.984 0 57.873 35.047 107.817 85.983 129.156 0 0 68.146-68.145 68.146-68.145 23.452-23.453 61.44-23.453 84.859 0 21.736 21.702 23.189 55.626 5.153 78.98 0 0 123.013 0 123.013 0s78.98-78.98 78.98-78.98c23.453-23.453 61.407-23.453 84.86 0 21.735 21.702 23.188 55.626 5.153 78.98 0 0 123.012 0 123.012 0s78.98-78.98 78.98-78.98c23.453-23.453 61.407-23.453 84.86 0 20.975 20.942 23.056 53.314 6.937 76.535 64.842-12.188 114.060-69.202 114.060-137.546 0-11.033-8.952-19.984-19.985-19.984 0 0 0 0 0 0" />
<glyph unicode="&#x49;" glyph-name="quotes" d="M247.183 602.969c121.772-6.711 218.692-104.078 218.692-222.807 0-123.059-104.138-223.162-232.143-223.162-124.724 0-222.346 93.377-232.124 222.009 0 0 0 0.019 0 0.019-16.592 219.135 98.327 397.933 201.778 484.475 6.232 5.194 15.558 5.115 21.725-0.212 9.23-8.063 15.554-14.253 29.42-27.824 10.493-10.276 25.456-24.94 49.608-48.155 5.572-5.36 6.375-13.792 1.9-20.042-59.414-82.934-60.983-142.451-58.856-164.301 0 0 0 0 0 0M805.307 602.969c121.773-6.711 218.693-104.078 218.693-222.807 0-123.059-104.139-223.162-232.143-223.162-124.725 0-222.346 93.377-232.125 222.009 0 0 0 0.019 0 0.019-16.591 219.135 98.327 397.933 201.779 484.475 6.231 5.194 15.558 5.115 21.725-0.212 9.23-8.063 15.554-14.253 29.419-27.824 10.494-10.276 25.457-24.94 49.609-48.155 5.572-5.36 6.374-13.792 1.9-20.042-59.415-82.934-60.983-142.451-58.857-164.301 0 0 0 0 0 0" />
<glyph unicode="&#x4a;" glyph-name="gluten" d="M712.404 350.017c32.72 7.422 67.999 23.078 105.375 46.84 26.92 17.112 42.992 46.436 42.992 78.444 0 10.714-1.838 21.11-5.25 30.865 36.864 5.616 77.22 22.226 120.395 49.67 26.921 17.111 42.992 46.43 42.992 78.438 0 32.013-16.071 61.332-42.992 78.449-19.747 12.546-38.901 22.813-57.403 30.828 11.911 7.583 23.013 16.206 32.784 26.020 31.060 31.221 53.944 78.891 68.021 141.689 7.001 31.232-2.264 63.396-24.776 86.026-22.517 22.636-54.503 31.949-85.579 24.91-62.464-14.147-109.88-37.16-140.94-68.381-9.755-9.803-18.318-20.954-25.858-32.919-7.966 18.572-18.157 37.78-30.612 57.597-17.020 27.061-46.188 43.213-78.034 43.213-31.841 0-61.009-16.158-78.034-43.218-27.293-43.401-43.817-83.973-49.406-121.026-9.701 3.423-20.043 5.271-30.703 5.271-31.841 0-61.009-16.158-78.029-43.218-23.633-37.581-39.214-73.038-46.597-105.935 0 0-76.498-20.75-76.498-20.75-14.304-7.432-26.657-18.62-35.614-32.865-34.218-54.406-51.566-104.383-51.566-148.539 0-75.506 52.547-154.133 83.116-193.487 0 0-257.131-258.494-257.131-258.494-13.409-13.485-13.409-35.345 0-48.829 6.71-6.742 15.5-10.116 24.285-10.116 8.79 0 17.58 3.374 24.285 10.116 0 0 257.125 258.479 257.125 258.479 39.123-30.72 117.394-83.623 192.555-83.623 43.93 0 93.642 17.44 147.763 51.841 14.169 9.006 25.293 21.412 32.692 35.797 0 0 20.642 76.907 20.642 76.907s0 0 0 0M816.593 904.986c21.418 21.537 58.584 38.772 107.471 49.842 1.919 0.437 3.73 0.625 5.428 0.625 8.472 0 14.174-4.678 16.481-6.995 2.764-2.781 8.919-10.499 6.338-22.021-11.016-49.147-28.16-86.507-49.583-108.043-33.081-33.258-96.757-49.513-142.223-56.385 6.839 45.714 23.002 109.719 56.088 142.977 0 0 0 0 0 0M828.159 695.509c30.289 0 68.694-14.234 111.050-41.154 9.938-6.317 11.011-16.147 11.011-20.081s-1.073-13.76-11.006-20.076c-42.361-26.92-80.761-41.154-111.055-41.154-46.791 0-103.251 33.776-140.234 61.23 36.993 27.464 93.448 61.235 140.234 61.235 0 0 0 0 0 0M613.545 941.581c6.284 9.992 16.061 11.070 19.974 11.070 3.907 0 13.689-1.078 19.968-11.065 26.78-42.587 40.938-81.187 40.938-111.642 0-47.040-33.593-103.796-60.906-140.973-27.325 37.188-60.907 93.944-60.907 140.973 0 30.455 14.153 69.055 40.933 111.637 0 0 0 0 0 0M455.402 782.608c6.284 9.987 16.061 11.070 19.974 11.070s13.689-1.083 19.973-11.070c26.78-42.582 40.938-81.182 40.938-111.643 0-33.986-17.542-73.043-37.575-106.124 0 0-81.64 82.066-81.64 82.066-1.665 8.197-2.603 16.265-2.603 24.058 0 30.456 14.153 69.061 40.933 111.643 0 0 0 0 0 0M316.677 370.449c-27.324 37.187-60.911 93.944-60.911 140.972 0 30.456 14.153 69.061 40.938 111.637 6.279 9.992 16.061 11.070 19.968 11.070 3.913 0 13.695-1.078 19.973-11.064 26.781-42.588 40.939-81.187 40.939-111.643 0-47.034-33.598-103.796-60.907-140.972 0 0 0 0 0 0M622.368 295.681c-42.361-26.926-80.761-41.154-111.055-41.154-46.792 0-103.252 33.77-140.229 61.23 36.988 27.464 93.448 61.229 140.229 61.229 30.294 0 68.694-14.228 111.055-41.154 9.933-6.311 11.005-16.141 11.005-20.075s-1.072-13.765-11.005-20.076c0 0 0 0 0 0M670.021 414.066c-7.755 0-15.78 0.948-23.934 2.619 0 0-81.64 82.071-81.64 82.071 32.914 20.14 71.766 37.769 105.569 37.769 30.294 0 68.699-14.228 111.055-41.154 9.933-6.311 11.011-16.141 11.011-20.070 0-3.934-1.078-13.765-11.011-20.081-42.356-26.921-80.755-41.154-111.050-41.154 0 0 0 0 0 0" />
<glyph unicode="&#x4b;" glyph-name="facebook" d="M396.029 825.67c0-25.786 0-140.986 0-140.986s-88.529 0-88.529 0c0 0 0-172.405 0-172.405s88.529 0 88.529 0c0 0 0-512.279 0-512.279s181.854 0 181.854 0c0 0 0 512.279 0 512.279s122.042 0 122.042 0c0 0 11.45 82.665 16.989 173.056-15.872 0-138.333 0-138.333 0s0 100.259 0 117.853c0 17.641 19.828 41.333 39.424 41.333 19.549 0 60.835 0 99.095 0 0 23.459 0 104.541 0 179.479-51.060 0-109.149 0-134.749 0-190.836 0-186.322-172.591-186.322-198.33 0 0 0 0 0 0" />
<glyph unicode="&#x4c;" glyph-name="arrow" d="M966.44 592.565c0 0 1.598-0.35 1.598-0.35s-685.214 0-685.214 0c0 0 215.406 215.881 215.406 215.881 10.548 10.539 16.334 24.817 16.334 39.802s-5.786 29.164-16.334 39.728c0 0-33.517 33.534-33.517 33.534-10.54 10.54-24.584 16.368-39.561 16.368-14.986 0-29.039-5.786-39.578-16.326 0 0-369.248-369.215-369.248-369.215-10.581-10.581-16.367-24.675-16.326-39.669-0.041-15.077 5.745-29.18 16.326-39.745 0 0 369.248-369.247 369.248-369.247 10.539-10.532 24.584-16.326 39.578-16.326 14.977 0 29.021 5.803 39.561 16.326 0 0 33.517 33.534 33.517 33.534 10.548 10.523 16.334 24.576 16.334 39.561 0 14.977-5.786 28.289-16.334 38.82 0 0-217.837 217.088-217.837 217.088s686.812 0 686.812 0c30.862 0 56.795 26.599 56.795 57.444 0 0 0 47.429 0 47.429 0 30.845-26.699 55.363-57.56 55.363 0 0 0 0 0 0" />
<glyph unicode="&#x4d;" glyph-name="tea" d="M360.391 822.878c-3.626-9.156-10.804-15.094-10.876-15.148 0 0 0.336 0.266 0.336 0.266s36.478-47.65 36.478-47.65c28.436 21.774 56.070 74.836 15.624 131.79-12.242 17.242-9.898 28.898-7.078 36.164 3.922 10.102 11.524 16.75 11.594 16.82 0 0-0.296-0.25-0.296-0.25s-37.992 46.446-37.992 46.446c-28.032-22.93-55.204-77.524-15.15-133.922 12.102-17.048 10-27.86 7.36-34.516 0 0 0 0 0 0M497.837 820.19c-3.626-9.164-10.806-15.094-10.884-15.156 0 0 0.344 0.274 0.344 0.274s36.468-47.648 36.468-47.648c28.446 21.772 56.080 74.836 15.634 131.788-12.242 17.234-9.906 28.89-7.078 36.164 3.922 10.102 11.516 16.75 11.594 16.812 0 0-0.298-0.242-0.298-0.242s-37.992 46.446-37.992 46.446c-28.038-22.938-55.21-77.524-15.148-133.93 12.102-17.038 10-27.86 7.36-34.508 0 0 0 0 0 0M1003.11 607.643c-16.672 19.586-40.992 30.828-66.718 30.828 0 0-74.742 0-74.742 0s0 72.89 0 72.89c0 0-830.814 0-830.814 0s0-178.336 0-178.336c0-117.742 50.1-228.594 134.968-306.399 0 0-165.804 0-165.804 0s0-89.118 0-89.118c0-57.35 46.656-104.008 104.008-104.008 0 0 705.658 0 705.658 0 57.35 0 104.008 46.658 104.008 104.008 0 0 0 89.118 0 89.118s-186.992 0-186.992 0c32.42 29.734 59.78 64.283 81.202 102.205 0 0 64.868 0 64.868 0 67.46 0 124.25 48.328 135.030 114.922 0 0 15.086 93.108 15.086 93.108 4.11 25.392-3.086 51.188-19.758 70.782 0 0 0 0 0 0M331.735 536.565c0 0 46.202-21.056 46.202-21.056s0-111.264 0-111.264c0 0-92.406 0-92.406 0s0 111.264 0 111.264c0 0 46.204 21.056 46.204 21.056M853.674 137.508c0-24.264-19.742-44-44.008-44 0 0-705.658 0-705.658 0-24.266 0-44 19.736-44 44 0 0 0 29.118 0 29.118s793.666 0 793.666 0c0 0 0-29.118 0-29.118M626.391 226.634c0 0-360.296 0-360.296 0-108.299 63.813-175.251 180.501-175.251 306.391 0 0 0 118.336 0 118.336s210.883 0 210.883 0c0 0 0-62.524 0-62.524s-76.205-34.742-76.205-34.742c0 0 0-209.85 0-209.85s212.415 0 212.415 0c0 0 0 209.85 0 209.85s-76.202 34.742-76.202 34.742c0 0 0 62.524 0 62.524s439.907 0 439.907 0c0 0 0-118.336 0-118.336 0-125.89-66.954-242.578-175.251-306.391 0 0 0 0 0 0M963.634 546.455c0 0-15.078-93.11-15.078-93.11-6.054-37.374-37.938-64.508-75.796-64.508 0 0-37.024 0-37.024 0 16.874 45.494 25.914 94.22 25.914 144.196 0 0 0 45.43 0 45.43s74.742 0 74.742 0c11.094 0 17.93-6.078 21.016-9.712 3.094-3.624 8-11.342 6.226-22.296 0 0 0 0 0 0M963.634 546.455" />
<glyph unicode="&#x4e;" glyph-name="meeting" d="M959.39 332.627c17.57 67.688-14.4 141.876-81.883 173.342 0 0-108.76 50.716-108.76 50.716-6.292 2.934-12.758 5.048-19.276 6.438 19.968 16.522 32.714 41.482 32.714 69.362 0 0 0 120.005 0 120.005 0 73.318-52.888 134.476-122.508 147.436-12.678 69.674-73.458 124.574-147.502 124.574-73.982 0-134.812-54.846-147.502-124.574-69.62-12.958-122.509-74.116-122.509-147.436 0 0 0-120.005 0-120.005 0-27.88 12.744-52.84 32.715-69.362-6.52-1.39-12.985-3.502-19.279-6.436 0 0-108.76-50.716-108.76-50.716-67.494-31.474-99.45-105.666-81.882-173.342-58.638-41.402-81.584-119.292-50.718-185.482 30.896-66.254 105.856-101.427 175.314-83.791 41.162-57.736 119.041-79.804 185.511-48.81 0 0 108.76 50.716 108.76 50.716 11.048 5.152 20.576 12.446 28.352 21.183 7.774-8.737 17.302-16.031 28.35-21.183 0 0 108.76-50.716 108.76-50.716 66.496-31.008 144.364-8.898 185.508 48.81 68.689-17.444 144.073 16.789 175.315 83.791 30.866 66.188 7.92 144.080-50.72 185.48 0 0 0 0 0 0M743.393 502.301c0 0 108.758-50.712 108.758-50.712 36.742-17.132 56.489-56.074 51.061-94.28-65.879 14.068-136.421-17.974-166.935-83.23 0 0 50.648 108.614 50.648 108.614 7.002 15.016 0.504 32.868-14.51 39.87 0 0-54.38 25.358-54.38 25.358-14.992 6.99-21.502 24.876-14.51 39.87 7.004 15.024 24.84 21.522 39.868 14.51 0 0 0 0 0 0M512.175 964.498c48.788 0 90.004-42.132 90.004-92.004 0-49.628-40.376-90.004-90.004-90.004s-90.004 40.376-90.004 90.004c0.002 49.872 41.218 92.004 90.004 92.004 0 0 0 0 0 0M302.169 752.49c0 40.554 26.968 74.916 63.906 86.13 15.402-66.444 75.038-116.132 146.102-116.132s130.698 49.688 146.102 116.132c36.94-11.214 63.906-45.578 63.906-86.13 0 0 0-120.005 0-120.005 0-16.542-13.458-30.002-30-30.002s-30.002 13.458-30.002 30.002c0 0 0 60.002 0 60.002 0 16.568-13.432 30.003-30 30.003 0 0-120.008 0-120.008 0s-120.004 0-120.004 0c-16.568 0-30-13.433-30-30.003 0 0 0-60.002 0-60.002 0-16.542-13.458-30.002-30.002-30.002s-30.002 13.458-30.002 30.002c0 0 0 120.005 0 120.005s0.002 0 0.002 0M172.198 451.589c0 0 108.761 50.716 108.761 50.716 15.028 7.006 32.862 0.518 39.87-14.51 7.008-15.026 0.518-32.864-14.51-39.87 0 0-54.381-25.358-54.381-25.358-15.016-7.002-21.512-24.852-14.51-39.87 0 0 50.675-108.67 50.675-108.67-30.495 65.284-101.055 97.36-166.961 83.286-5.432 38.202 14.316 77.144 51.056 94.276 0 0 0 0 0 0M190.226 126.971c-45.060-21.012-100.544 0.36-121.608 45.534-20.774 44.556-0.348 98.212 45.536 119.606 45.162 21.060 98.628 1.458 119.606-43.534 21.034-45.104 1.098-100.794-43.534-121.606 0 0 0 0 0 0M458.469 119.643c0 0-108.76-50.717-108.76-50.717-36.766-17.144-79.32-7.214-105.093 21.545 21.981 17.28 38.811 40.574 48.595 67.92 13.656 38.172 11.87 79.174-5.028 115.462 0 0 50.678-108.68 50.678-108.68 6.996-15.002 24.85-21.514 39.87-14.51 0 0 54.38 25.358 54.38 25.358 15.028 7.006 32.862 0.518 39.87-14.51 7.16-15.358 0.38-34.924-14.512-41.868 0 0 0 0 0 0M512.175 209.645c-25.312 27.698-67.254 38.092-104.426 20.758 0 0-27.19-12.678-27.19-12.678s-76.074 163.14-76.074 163.14c0 0 27.19 12.678 27.19 12.678 44.978 20.972 64.506 74.628 43.534 119.608-5.84 12.524-14.22 23.068-24.234 31.322 40.63 8.672 71.198 44.834 71.198 88.012 0 0 0 30.002 0 30.002s180.006 0 180.006 0c0 0 0-30.002 0-30.002 0-43.178 30.57-79.338 71.198-88.012-10.016-8.252-18.394-18.796-24.234-31.322-20.972-44.98-1.444-98.634 43.534-119.608 0 0 27.192-12.678 27.192-12.678s-76.074-163.14-76.074-163.14c0 0-27.19 12.678-27.19 12.678-37.168 17.328-79.112 6.946-104.43-20.758 0 0 0 0 0 0M674.645 68.924c0 0-108.76 50.717-108.76 50.717-14.892 6.944-21.672 26.508-14.51 41.87 6.992 14.994 24.878 21.502 39.87 14.51 0 0 54.38-25.358 54.38-25.358 15.004-6.996 32.87-0.504 39.87 14.51 0 0 50.658 108.634 50.658 108.634-16.876-36.28-18.658-77.26-5.008-115.416 9.784-27.346 26.612-50.64 48.594-67.92-25.774-28.761-68.326-38.691-105.094-21.547 0 0 0 0 0 0M955.73 172.505c-21.050-45.142-76.523-66.56-121.609-45.534-44.63 20.81-64.566 76.5-43.534 121.608 21.024 45.092 74.52 64.556 119.607 43.534 45.888-21.396 66.316-75.052 45.536-119.608 0 0 0 0 0 0" />
<glyph unicode="&#x4f;" glyph-name="gluten-free" d="M736.513 367.315c0 0 135.046-129.74 135.046-129.74 12.773-12.27 13.179-32.571 0.909-45.343s-32.571-13.18-45.343-0.909c0 0-125.481 120.551-125.481 120.551-16.485-20.628-34.118-36.196-52.728-46.513-52.822-29.279-128.327-22.787-167.722-16.551 0 0-69.697-228.815-69.697-228.815-2.102-7.323-6.973-13.106-13.149-16.529s-13.661-4.49-20.984-2.39c-14.65 4.2-23.122 19.483-18.92 34.132 0 0 69.697 228.827 69.697 228.827-36.734 15.603-104.126 50.098-133.382 102.88-17.112 30.869-24.284 72.562-21.319 123.925 0.775 13.447 5.118 26.074 12.29 36.846 0 0 45.719 44.304 45.719 44.304-7.557 25.87-10.35 56.725-8.305 92.201 0.198 3.421 0.625 6.789 1.27 10.090 0 0-171.062 164.338-171.062 164.338-12.772 12.271-13.179 32.571-0.909 45.344 12.271 12.771 32.571 13.177 45.344 0.907 0 0 165.485-158.982 165.485-158.982 6.894 3.545 14.171 5.924 21.584 7.187-10.435 28.079-14.543 62.876-12.179 103.847 1.475 25.549 15.712 48.204 38.088 60.609 22.379 12.404 49.137 12.473 71.583 0.187 16.431-8.998 31.038-18.457 43.83-28.335 0.662 11.298 2.361 22.428 5.415 33.083 9.727 33.925 34.136 68.48 72.551 102.702 19.109 17.028 45.197 22.974 69.789 15.925 24.59-7.054 43.56-25.927 50.746-50.488 14.44-49.38 16.829-91.619 7.1-125.544-3.060-10.666-7.524-21.016-12.955-30.959 16.109 1.607 33.545 1.89 52.285 0.81 25.548-1.479 48.205-15.715 60.608-38.090 12.404-22.377 12.47-49.135 0.183-71.581-19.705-36-41.629-63.332-65.358-81.616 6.174-5.492 11.494-12.043 15.646-19.533 12.404-22.375 12.474-49.135 0.187-71.581-17.061-31.173-35.783-55.858-55.902-73.793 0 0 15.294-61.801 15.294-61.801 0.291-10.020-1.45-20.084-5.254-29.602 0 0 0 0 0 0M428.411 663.309c0 0 48.83-46.912 48.83-46.912-9.395 15.897-26.043 31.855-48.83 46.912 0 0 0 0 0 0M473.195 531.345c0 0-87.989 84.532-87.989 84.532s7.533-48.855 7.533-48.855c3.022-5.449 6.806-10.725 11.151-15.805 0 0 69.305-19.872 69.305-19.872s0 0 0 0M661.62 350.325c0 0-61.070 58.668-61.070 58.668-9.848-2.43-18.512-5.69-25.843-9.754-32.876-18.223-59.467-63.817-74.818-97.427 36.626-4.79 89.39-6.405 122.27 11.821 13.269 7.356 26.61 19.804 39.461 36.692 0 0 0 0 0 0M605.163 493.502c0 0 48.873-14.015 48.873-14.015 6.379 2.011 12.384 4.475 17.834 7.495 0 0 62.094 72.027 62.094 72.027 4.533 8.285 1.479 15.574-0.044 18.323-1.523 2.747-6.088 9.201-15.516 9.745-40.198 2.32-72.699-2.69-93.987-14.491-18.701-10.367-35.367-29.588-49.089-50.421 0 0 29.835-28.663 29.835-28.663s0 0 0 0M584.646 887.252c0 0 15.987-121.795 15.987-121.795 29.287 22.514 67.736 58.68 78.097 94.817 6.709 23.397 4.281 56.19-7.022 94.838-2.651 9.063-9.963 12.057-12.987 12.926-2.518 0.72-8.338 1.77-14.29-1.528-1.194-0.664-2.395-1.501-3.575-2.553-30.064-26.782-49.501-53.307-56.21-76.705 0 0 0 0 0 0M673.944 745.321c0 0-74.818-97.427-74.818-97.427 36.627-4.79 89.39-6.404 122.271 11.822 21.288 11.799 42.759 36.707 62.096 72.026 4.535 8.285 1.48 15.573-0.042 18.322-1.525 2.748-6.090 9.203-15.52 9.749-40.198 2.318-72.699-2.692-93.987-14.492 0 0 0 0 0 0M427.777 833.739c0 0 14.493-93.985 14.493-93.985 18.222-32.877 63.817-59.468 97.427-74.819 4.79 36.626 6.402 89.389-11.824 122.27-11.801 21.288-36.707 42.758-72.026 62.096-8.287 4.534-15.576 1.479-18.323-0.044-2.749-1.523-9.203-6.088-9.747-15.518 0 0 0 0 0 0M440.461 318.852c0 0-11.821 122.27-11.821 122.27-11.803 21.292-36.707 42.762-72.029 62.096-8.283 4.536-15.574 1.481-18.323-0.044-2.747-1.522-9.201-6.085-9.745-15.517-2.324-40.196 2.688-72.696 14.491-93.986 18.225-32.875 63.817-59.466 97.427-74.819 0 0 0 0 0 0" />
<glyph unicode="&#x50;" glyph-name="discount" d="M1015.709 1015.713c-11.714 11.716-30.712 11.716-42.428 0 0 0-87.38-87.38-87.38-87.38-5.372 2.56-11.040 4.622-16.958 6.1 0 0-271.542 67.086-271.542 67.086-30.492 7.622-63.244-1.448-85.47-23.674 0 0-485.114-484.316-485.114-484.316-35.089-35.092-35.089-92.192 0-127.286 0 0 339.426-339.423 339.426-339.423 35.092-35.092 92.192-35.094 127.286 0 0 0 484.316 485.115 484.316 485.115 22.226 22.226 31.298 54.978 23.672 85.472 0 0-67.084 271.54-67.084 271.54-1.48 5.916-3.54 11.586-6.1 16.958 0 0 87.38 87.38 87.38 87.38 11.712 11.716 11.712 30.712-0.004 42.428 0 0 0 0 0 0M943.303 582.851c2.542-10.164-0.482-21.080-7.89-28.49 0 0-484.316-485.113-484.316-485.113-11.698-11.698-30.732-11.698-42.43 0 0 0-339.424 339.425-339.424 339.425-11.698 11.698-11.698 30.732 0 42.43 0 0 485.116 484.314 485.116 484.314 5.674 5.674 13.406 8.776 21.282 8.776 2.408 0 4.83-0.29 7.208-0.884 0 0 255.060-62.966 255.060-62.966s-72.25-72.25-72.25-72.25c-33.45 15.932-74.768 10.088-102.42-17.564-35.094-35.094-35.094-92.192 0-127.286 17.544-17.546 40.594-26.32 63.642-26.32 23.046 0 46.096 8.772 63.64 26.32 27.658 27.656 33.5 68.972 17.564 102.422 0 0 72.25 72.25 72.25 72.25s62.968-255.064 62.968-255.064c0 0 0 0 0 0M748.095 705.669c-11.696-11.696-30.73-11.698-42.428 0-11.696 11.696-11.696 30.732 0 42.428 5.85 5.85 13.53 8.772 21.214 8.772 7.68 0 15.364-2.924 21.21-8.77 0 0 0.002-0.002 0.002-0.002s0.002-0.002 0.002-0.002c11.698-11.696 11.696-30.73 0-42.426 0 0 0 0 0 0M493.525 663.241c-35.092 35.092-92.192 35.092-127.286 0-35.090-35.092-35.090-92.192 0-127.286 35.092-35.092 92.194-35.092 127.286 0 35.094 35.094 35.094 92.192 0 127.286 0 0 0 0 0 0M451.099 578.385c-11.698-11.698-30.732-11.698-42.428 0s-11.7 30.732-0.002 42.428c11.698 11.696 30.73 11.698 42.43 0 11.696-11.696 11.696-30.73 0-42.428 0 0 0 0 0 0M535.953 366.245c-35.174 35.174-92.104 35.178-127.284 0-35.094-35.093-35.094-92.191 0-127.285 35.176-35.174 92.106-35.18 127.284 0 35.094 35.094 35.094 92.192 0 127.285 0 0 0 0 0 0M493.525 281.388c-11.722-11.724-30.704-11.726-42.428 0-11.696 11.696-11.696 30.732 0 42.428 11.724 11.724 30.704 11.726 42.428 0 11.696-11.696 11.696-30.728 0-42.428 0 0 0 0 0 0M671.843 475.627c-1.83 16.468-16.666 28.336-33.132 26.506 0 0-381.852-42.428-381.852-42.428-16.468-1.83-28.336-16.662-26.506-33.132 1.706-15.342 14.694-26.692 29.782-26.692 1.106 0 2.226 0.062 3.35 0.186 0 0 381.854 42.428 381.854 42.428 16.468 1.832 28.336 16.664 26.504 33.132 0 0 0 0 0 0" />
<glyph unicode="&#x51;" glyph-name="egg" d="M512.313 1024c-197.107 0-354.112-196.186-408.32-414.285 0 0-1.139-0.755-1.139-0.755s0.691-1.037 0.691-1.037c-13.018-52.889-20.045-106.995-20.045-159.923 0-263.77 176.333-448 428.8-448s428.8 184.23 428.8 448c0.013 271.898-183.373 576-428.787 576 0 0 0 0 0 0M512.313 947.2c174.451 0 314.406-207.808 345.485-415.014 0 0-111.168 167.411-111.168 167.411s-153.012-230.387-153.012-230.387c0 0-152.896 230.412-152.896 230.412s-152.972-230.4-152.972-230.4c0 0-100.916 152.064-100.916 152.064 52.16 173.735 176.192 325.914 325.479 325.914 0 0 0 0 0 0M512.313 76.8c-210.547 0-352 149.171-352 371.2 0 22.387 1.485 45.12 4.275 67.942 0 0 123.162-185.587 123.162-185.587s152.96 230.4 152.96 230.4c0 0 152.883-230.387 152.883-230.387s153.037 230.413 153.037 230.413c0 0 114.15-171.891 114.15-171.891-23.002-188.98-157.222-312.090-348.467-312.090 0 0 0 0 0 0" />
<glyph unicode="&#x52;" glyph-name="milk" d="M745.969 118.083c22.269 0 40.314 17.907 40.314 40 0 0 0 404.811 0 404.811 0 28.881-5.224 57.215-15.561 84.266 0 0-91.273 238.189-91.273 238.189s0 58.65 0 58.65c0 0 12.094 0 12.094 0 22.27 0 40.315 17.908 40.315 40s-18.045 40.001-40.315 40.001c0 0-350.74 0-350.74 0-22.27 0-40.315-17.908-40.315-40.001s18.045-40 40.315-40c0 0 12.095 0 12.095 0s0-58.312 0-58.312c0 0-98.022-243.833-98.022-243.833-11.2-28.010-16.876-57.497-16.876-87.62 0 0 0-394.232 0-394.232 0-88.225 72.341-160.002 161.26-160.002 0 0 225.764 0 225.764 0 88.918 0 161.259 71.777 161.259 160.002 0 22.093-18.045 40.001-40.314 40.001s-40.315-17.908-40.315-40.001c0-44.113-36.171-80.001-80.63-80.001 0 0-225.764 0-225.764 0-44.459 0-80.63 35.888-80.63 80.001 0 0 0 394.232 0 394.232 0 19.988 3.765 39.549 11.167 58.053 0 0 18.327 45.597 18.327 45.597 21.956-7.152 43.202-9.99 63.746-9.99 41.235 0 79.655 11.36 115.382 21.923 55.473 16.392 99.328 29.349 147.028 3.894 0 0 21.061-54.941 21.061-54.941 6.837-17.916 10.313-36.711 10.313-55.876 0 0 0-404.811 0-404.811 0-22.093 18.045-40 40.315-40 0 0 0 0 0 0M504.24 746.48c-45.032-13.304-85.032-25.116-126.089-13.909 0 0 52.514 130.613 52.514 130.613 1.887 4.708 2.863 9.74 2.863 14.819 0 0 0 65.996 0 65.996s165.291 0 165.291 0c0 0 0-65.996 0-65.996 0-4.862 0.887-9.683 2.628-14.215 0 0 37.098-96.788 37.098-96.788-48.265 4.894-93.119-8.345-134.305-20.52 0 0 0 0 0 0" />
<glyph unicode="&#x53;" glyph-name="nuts" d="M568.086 181.804c90.624 22.656 153.914 103.718 153.914 197.126 0 16.562-13.43 30-30 30s-30-13.438-30-30c0-65.83-44.602-122.954-108.468-138.916-16.070-4.022-25.844-20.312-21.828-36.382 4-16.008 20.242-25.86 36.382-21.828 0 0 0 0 0 0M572 964c0 0 60 0 60 0 16.57 0 30 13.428 30 30 0 16.57-13.43 30-30 30 0 0-60 0-60 0-49.624 0-90-40.376-90-90 0 0 0-30.728 0-30.728-202.766-9.96-360-124.694-360-329.272 0-16.572 13.43-30 30-30 0 0 30 0 30 0s0-165.064 0-165.064c0-148.586 100.68-277.53 244.828-313.57 6.438-1.608 12.312-4.938 17-9.624 0 0 46.962-46.954 46.962-46.954 5.624-5.632 13.25-8.788 21.21-8.788 7.962 0 15.586 3.156 21.212 8.788 0 0 46.952 46.954 46.952 46.954 4.696 4.694 10.57 8.022 17.008 9.632 144.148 36.032 244.828 164.976 244.828 313.562 0 0 0 165.064 0 165.064s30 0 30 0c16.57 0 30 13.428 30 30 0 204.608-157.258 319.312-360 329.272 0 0 0 30.728 0 30.728 0 16.538 13.462 30 30 30 0 0 0 0 0 0M782 378.936c0-121-81.984-226.008-199.374-255.358-16.986-4.25-32.5-13.032-44.884-25.406 0 0-25.742-25.744-25.742-25.744s-25.742 25.744-25.742 25.744c-12.382 12.374-27.898 21.164-44.876 25.406-117.398 29.35-199.382 134.358-199.382 255.358 0 0 0 165.064 0 165.064s540 0 540 0c0 0 0-165.064 0-165.064M840.64 604c0 0-657.288 0-657.288 0 16.328 176.258 177.406 240 328.648 240s312.32-63.742 328.64-240c0 0 0 0 0 0M840.64 604" />
<glyph unicode="&#x54;" glyph-name="peanut" d="M1018.973 384.471c-18.928 106.162-99.345 198.986-204.881 236.499-0.084 0.020-3.606 1.25-3.69 1.292-88.736 30.428-157.086 98.744-188.832 191.11-37.272 104.744-130.113 185.126-236.505 204.779-101.994 18.902-304.707-11.399-336.037-42.597-31.266-31.096-61.574-233.812-42.69-335.954 19.698-106.329 100.118-199.111 208.571-237.667 88.736-30.428 157.086-98.744 188.812-191.11 37.792-106.161 128.382-184.627 236.461-204.759 22.68-4.23 49.298-6.064 77.5-6.064 106.58 0 235.566 26.28 258.327 48.892 30.854 30.7 61.244 233.105 42.964 335.579 0 0 0 0 0 0M647.936 48.126c-91.73 17.084-171.791 86.562-205.083 180.249-34.73 101.208-112.708 179.146-217.188 215.020-90.625 32.23-160.145 112.25-177.103 203.833-16.592 89.808 8.606 236.872 24.388 283.916 24.962-9.724 64.662-16.184 124.549-25.186 29.77-4.48 62.084-9.334 94.584-15.334 91.646-16.938 171.688-86.416 205.042-180.27 34.75-101.188 112.729-179.145 217.187-214.999 91.292-32.438 160.812-112.396 177.084-203.708 6.084-34.146 8.75-59.084 11.084-81.062 4.552-42.565 8.182-74.707 31.55-136.549-45.56-16.5-195.428-42.904-286.094-25.91 0 0 0 0 0 0M960.977 126.968c-10.105 33.79-12.799 57.546-16.061 88.137-2.416 22.688-5.166 48.396-11.52 84.042-18.916 106.126-99.312 198.916-208.48 237.708-88.666 30.416-156.98 98.707-188.707 191.041-37.25 104.688-130.020 185.042-236.376 204.688-32.98 6.084-65.77 11.020-96 15.562-24.742 3.724-52.355 7.89-75.455 12.334 46.281 10.516 116.489 20.876 179.747 20.876 24.854 0 48.584-1.604 69.25-5.416 91.646-16.938 171.688-86.438 205.061-180.292 34.73-101.188 112.73-179.146 213.916-213.853 0 0 3.25-1.126 3.25-1.126s0.020-0.020 0.020-0.020c91.292-32.438 160.791-112.396 177.061-203.708 13.23-74.148-1.394-186.277-15.706-249.973 0 0 0 0 0 0M668.268 169.668c-36.73 11.646-64.542 38.853-70.876 69.333-2.416 11.542-13.812 18.938-25.23 16.562-11.542-2.396-18.957-13.708-16.561-25.23 9.561-46.041 47.811-84.875 99.791-101.333 2.146-0.688 4.312-1 6.438-1 9.062 0 17.458 5.812 20.334 14.896 3.564 11.23-2.666 23.21-13.896 26.772 0 0 0 0 0 0M619.164 341.335c9.062 0 17.458 5.812 20.334 14.896 3.562 11.23-2.666 23.208-13.896 26.77-36.73 11.646-64.542 38.854-70.875 69.334-2.416 11.562-13.854 18.98-25.23 16.562-11.542-2.396-18.958-13.708-16.562-25.23 9.562-46.042 47.811-84.876 99.791-101.334 2.148-0.686 4.314-0.998 6.438-0.998 0 0 0 0 0 0M369.603 553.667c-36.73 11.646-64.542 38.854-70.876 69.333-2.416 11.542-13.77 18.958-25.23 16.562-11.542-2.396-18.958-13.708-16.562-25.23 9.562-46.041 47.812-84.875 99.792-101.333 2.146-0.688 4.312-1 6.438-1 9.062 0 17.458 5.812 20.334 14.896 3.562 11.23-2.666 23.21-13.896 26.772 0 0 0 0 0 0M326.937 809.666c-11.292 3.604-23.208-2.688-26.77-13.896-3.562-11.23 2.666-23.208 13.896-26.77 36.73-11.646 64.542-38.854 70.876-69.334 2.104-10.084 10.98-17 20.876-17 1.438 0 2.896 0.146 4.354 0.438 11.542 2.396 18.958 13.708 16.562 25.23-9.566 46.040-47.816 84.874-99.794 101.332 0 0 0 0 0 0M796.268 297.667c-11.292 3.604-23.208-2.646-26.77-13.896-3.562-11.23 2.666-23.208 13.896-26.77 14.75-4.666 25.812-15.146 28.208-26.666 2.104-10.084 10.98-17 20.876-17 1.438 0 2.896 0.146 4.354 0.438 11.542 2.396 18.958 13.708 16.562 25.23-5.562 26.79-27.458 49.268-57.126 58.664 0 0 0 0 0 0M156.269 724.334c-14.749 4.666-25.811 15.146-28.207 26.666-2.438 11.562-13.75 18.916-25.23 16.562-11.542-2.396-18.958-13.708-16.562-25.23 5.584-26.812 27.458-49.292 57.126-58.666 2.146-0.688 4.312-1 6.438-1 9.061 0 17.457 5.812 20.333 14.896 3.562 11.23-2.668 23.23-13.898 26.772 0 0 0 0 0 0" />
<glyph unicode="&#x55;" glyph-name="fish" d="M1014.549 369.678c-63.121 63.132-130.428 95.145-200.042 95.145-29.638 0-54.637-5.905-73.766-12.85-40.701 144.115-101.876 312.11-211.445 421.667-124.251 124.274-272.484 150.36-374.949 150.36-60.27 0-103.448-9.095-114.466-11.663-1.030-0.192-2.048-0.407-3.066-0.69-4.513-1.233-8.654-3.371-12.206-6.199-5.644-4.457-9.818-10.678-11.764-17.85-0.272-0.996-0.487-2.002-0.668-3.009-6.889-29.502-60.542-290.154 138.686-489.382 109.501-109.512 277.247-170.653 421.238-211.32-23.122-64.049-23.054-168.153 82.725-273.944 6.335-6.346 14.909-9.909 23.868-9.943 0.080 0 0.159 0 0.238 0 24.411 0 29.151 13.88 41.741 50.757 5.815 17.002 13.654 40.181 21.957 64.841 15.758 46.718 33.212 98.788 41.798 124.444 21.753 7.284 62.499 20.949 102.883 34.524 28.71 9.66 57.239 19.298 78.596 26.572 49.241 16.753 53.257 18.133 57.646 36.741 2.726 11.459-0.678 23.496-9.004 31.799 0 0 0 0 0 0M74.462 949.929c17.511 2.862 45.361 6.199 79.885 6.199 73.789 0 174.579-15.464 268.073-81.051-30.757-54.004-71.334-106.831-118.663-154.149-47.488-47.488-100.406-88.042-154.534-118.833-97.962 139.217-83.981 293.050-74.761 347.834 0 0 0 0 0 0M746.895 299.056c-10.023-3.359-17.919-11.187-21.346-21.187 0 0-4.106-12.274-4.106-12.274-27.002-80.564-44.298-131.921-55.316-164.477-73.020 103.777-20.068 180.88-17.647 184.319 6.685 9.027 8.473 20.78 4.762 31.379s-12.432 18.688-23.291 21.584c-143.72 38.359-322.597 96.299-431.102 204.793-1.98 1.98-3.801 3.982-5.724 5.961 55.746 32.975 109.896 75.056 158.606 123.754 48.574 48.574 90.632 102.68 123.584 158.346 1.991-1.912 4.005-3.654 5.973-5.622 108.448-108.437 166.423-287.348 204.804-431.113 2.896-10.848 10.984-19.559 21.584-23.28 10.61-3.688 22.375-1.935 31.391 4.762 0.283 0.215 29.558 20.939 75.406 20.939 36.402 0 72.906-12.93 109.003-38.518-49.129-16.64-121.899-41.063-176.581-59.366 0 0 0 0 0 0M203.362 753.099c18.122 0 35.169 7.059 47.986 19.887 12.828 12.816 19.887 29.864 19.887 47.985 0 18.145-7.070 35.17-19.876 47.986-12.805 12.817-29.863 19.887-47.997 19.887s-35.169-7.059-47.997-19.887-19.886-29.875-19.886-47.997c0-18.133 7.070-35.169 19.886-47.974 12.828-12.828 29.875-19.887 47.997-19.887 0 0 0 0 0 0" />
<glyph unicode="&#x56;" glyph-name="soy" d="M511.986 652.136c-77.001 0-139.636-62.635-139.636-139.636s62.635-139.636 139.636-139.636c77 0 139.636 62.636 139.636 139.636s-62.636 139.636-139.636 139.636c0 0 0 0 0 0M511.986 419.411c-51.319 0-93.092 41.749-93.092 93.091 0 51.343 41.773 93.090 93.092 93.090s93.091-41.749 93.091-93.092-41.773-93.089-93.091-93.089c0 0 0 0 0 0M279.258 419.411c-77.001 0-139.636-62.636-139.636-139.636s62.635-139.637 139.636-139.637c77.001 0 139.636 62.636 139.636 139.637s-62.635 139.636-139.636 139.636c0 0 0 0 0 0M279.258 186.683c-51.318 0-93.091 41.749-93.091 93.092s41.773 93.091 93.091 93.091c51.319 0 93.092-41.749 93.092-93.091s-41.773-93.092-93.092-93.092c0 0 0 0 0 0M1023.94 751.117c-1.455 69.794-45.816 205.086-47.725 210.811-2.319 6.999-7.817 12.5-14.819 14.817-5.727 1.887-140.904 46.18-210.676 47.657-118.723 3.118-226.448-70.767-267.809-182.4-11.5-31.021-37.045-56.020-70.135-68.635-74.36-28.364-133.313-87.292-161.631-161.655-12.637-33.090-37.636-58.658-68.679-70.157-111.543-41.317-184.861-148.904-182.406-267.697 1.455-69.84 46.318-204.677 48.227-210.382 2.317-6.932 7.771-12.364 14.727-14.682 5.681-1.909 140.45-46.749 210.266-48.226 2.001-0.046 3.956-0.068 5.954-0.068 116.406 0 221.175 72.724 261.855 182.472 11.5 31.021 37.045 56.020 70.135 68.635 74.36 28.364 133.313 87.293 161.631 161.655 12.637 33.090 37.636 58.659 68.679 70.157 111.545 41.319 184.861 148.907 182.406 267.698 0 0 0 0 0 0M825.349 527.068c-43.59-16.137-78.591-51.567-95.954-97.204-23.636-62.001-72.772-111.113-134.727-134.749-45.637-17.387-81.092-52.364-97.228-95.954-34.499-93.046-123.999-155.341-223.183-152.047-52.091 1.091-152.136 31.615-185.454 42.227-10.591 33.319-41.136 133.364-42.227 185.501-2.046 98.978 59.047 188.635 152.047 223.090 43.59 16.137 78.591 51.567 95.954 97.204 23.635 62.001 72.772 111.114 134.727 134.749 45.637 17.387 81.091 52.364 97.226 95.955 34.501 93.023 125 155.024 223.182 152.046 52.091-1.091 152.363-31.226 185.908-41.749 10.501-33.546 40.682-133.841 41.773-185.978 2.047-98.976-59.044-188.636-152.044-223.091 0 0 0 0 0 0M744.714 884.864c-77.001 0-139.637-62.635-139.637-139.636s62.636-139.636 139.637-139.636c77 0 139.636 62.635 139.636 139.636s-62.638 139.636-139.636 139.636c0 0 0 0 0 0M744.714 652.136c-51.319 0-93.092 41.749-93.092 93.092s41.773 93.092 93.092 93.092c51.318 0 93.091-41.75 93.091-93.092s-41.773-93.092-93.091-93.092c0 0 0 0 0 0" />
<glyph unicode="&#x57;" glyph-name="mustard" d="M719.549 706.657c0 0-16.005 0-16.005 0s0 84.971 0 84.971c0 19.789-16.038 35.833-35.832 35.833 0 0-43.654 0-43.654 0s-60.619 172.584-60.619 172.584c-5.045 14.352-18.6 23.955-33.812 23.955 0 0-34.882 0-34.882 0-15.212 0-28.766-9.603-33.807-23.955 0 0-60.623-172.584-60.623-172.584s-43.645 0-43.645 0c-19.789 0-35.832-16.044-35.832-35.833 0 0 0-84.971 0-84.971s-16.005 0-16.005 0c-19.79 0-35.833-16.043-35.833-35.833 0 0 0-634.991 0-634.991 0-19.79 16.043-35.833 35.833-35.833 0 0 414.716 0 414.716 0 19.79 0 35.833 16.043 35.833 35.833 0 0 0 634.991 0 634.991 0 19.79-16.039 35.833-35.833 35.833 0 0 0 0 0 0M512.189 929.703c0 0 35.918-102.238 35.918-102.238s-71.837 0-71.837 0c0 0 35.919 102.238 35.919 102.238s0 0 0 0M392.503 755.795c0 0 33.2 0 33.2 0s172.966 0 172.966 0c0 0 0.096 0 0.096 0s33.119 0 33.119 0c0 0 0-49.138 0-49.138s-239.381 0-239.381 0c0 0 0 49.138 0 49.138s0 0 0 0M683.717 71.665c0 0-343.047 0-343.047 0s0 563.327 0 563.327c0 0 15.819 0 15.819 0 0.067 0 0.124-0.010 0.186-0.010 0 0 311.046 0 311.046 0 0.062 0 0.12 0.010 0.182 0.010 0 0 15.823 0 15.823 0s0-563.327 0-563.327c0 0-0.009 0-0.009 0" />
<glyph unicode="&#xe900;" glyph-name="balloon" d="M319.605 430.125c8.474-0.017 15.674 6.191 16.907 14.582 1.233 8.383-3.875 16.399-11.991 18.832-35.256 10.574-73.537 49.28-105.059 106.143-4.566 8.249-14.949 11.233-23.198 6.666s-11.233-14.957-6.666-23.198c35.839-64.596 81.403-109.226 125.091-122.291 1.592-0.483 3.25-0.733 4.916-0.733zM495.843 809.382c10.558-23.773 16.066-49.48 16.191-75.495 0-9.424 7.641-17.065 17.065-17.065s17.065 7.641 17.065 17.065c-0.117 30.69-6.591 61.021-19.007 89.085-15.816 37.006-41.030 69.245-73.145 93.518-7.541 5.65-18.232 4.125-23.89-3.416s-4.125-18.24 3.408-23.89c27.381-20.707 48.855-48.222 62.312-79.803zM341.379 921.607c15.557-0.058 30.998-2.683 45.705-7.766 8.924-3.033 18.624 1.742 21.657 10.666s-1.742 18.624-10.666 21.657c-18.249 6.283-37.397 9.516-56.696 9.574-9.424 0-17.065-7.641-17.065-17.065s7.641-17.065 17.065-17.065zM665.831 326.957c-35.256 10.583-73.537 49.288-105.059 106.151-4.566 8.249-14.949 11.233-23.198 6.666s-11.233-14.957-6.666-23.207c35.839-64.587 81.403-109.217 125.091-122.283 5.875-1.875 12.299-0.433 16.807 3.766s6.4 10.508 4.958 16.491c-1.442 5.991-6.008 10.741-11.933 12.416zM795.322 779.967c-7.541 5.65-18.232 4.125-23.89-3.416s-4.125-18.24 3.408-23.89c27.348-20.69 48.822-48.163 62.279-79.694 10.583-23.807 16.107-49.555 16.224-75.603 0-9.424 7.641-17.065 17.065-17.065s17.065 7.641 17.065 17.065c-0.117 30.69-6.591 61.021-19.007 89.085-15.816 37.006-41.030 69.245-73.145 93.518zM739.384 809.64c-18.249 6.283-37.397 9.516-56.696 9.574-9.424 0-17.065-7.641-17.065-17.065s7.641-17.065 17.065-17.065c15.557-0.058 30.998-2.683 45.705-7.766 8.924-3.033 18.624 1.742 21.657 10.666s-1.742 18.624-10.666 21.657zM682.455 887.476h-0.275c-34.423-0.158-68.42-7.566-99.785-21.74-43.872 94.152-137.182 155.423-241.017 158.264-145.448 0-273.048-135.566-273.048-290.113 0-133.674 91.744-315.37 212.277-363.016l-7.249-43.755c-0.825-4.95 0.575-10.008 3.816-13.832 3.233-3.825 7.999-6.033 13.007-6.033h27.515l-10.808-32.423c-11.766-34.989-6.591-73.47 14.016-104.101l12.674-19.007c14.682-21.882 18.365-49.347 9.966-74.328l-18.29-54.913c-2.983-8.958 1.867-18.624 10.816-21.607 8.958-2.975 18.632 1.867 21.607 10.824l18.19 54.93c11.774 34.989 6.6 73.47-14.007 104.101l-12.682 19.007c-14.699 21.882-18.39 49.347-9.983 74.328l14.474 43.189h38.906c5.016 0 9.774 2.208 13.016 6.033s4.633 8.883 3.816 13.832l-7.258 43.722c20.815 8.358 40.239 19.824 57.613 34.014 35.839-71.937 92.394-143.098 162.122-170.746l-7.216-43.514c-0.825-4.95 0.575-10.008 3.816-13.832 3.233-3.825 7.999-6.033 13.007-6.033h27.515l-10.808-32.423c-11.766-34.989-6.591-73.47 14.016-104.101l12.657-18.974c1.367-2.050 2.633-4.166 3.808-6.3 2.991-5.491 8.749-8.899 14.999-8.891 2.85 0 5.65 0.725 8.141 2.1 8.274 4.508 11.333 14.866 6.825 23.14-1.708 3-3.408 5.958-5.358 8.858l-12.674 19.007c-14.707 21.873-18.39 49.347-9.991 74.32l14.357 43.264h38.906c5.016 0 9.774 2.208 13.016 6.033s4.633 8.883 3.816 13.832l-7.174 43.205c48.88 19.082 95.385 60.879 134.824 122.433 47.088 72.112 73.82 155.606 77.37 241.658-0.358 154.364-127.991 289.588-273.281 289.588zM102.462 733.887c0 136.374 111.642 255.982 238.917 255.982 91.627 0 176.838-60.187 217.127-153.398 14.266-32.331 21.682-67.254 21.79-102.585-0.033-12.557-0.858-25.090-2.475-37.547-1.975-14.899-4.825-29.673-8.533-44.247-19.065-78.278-58.954-149.94-115.425-207.394-21.307-21.232-47.28-37.181-75.845-46.588-17.799-5.525-36.622-6.95-55.055-4.166-6.208 0.942-12.332 2.342-18.34 4.183-111.967 33.698-202.161 211.185-202.161 335.76zM310.322 341.381l3.241 19.574c1.008-0.183 2-0.242 3-0.408 1.008-0.175 2.491-0.325 3.741-0.492 6.891-1.008 13.841-1.542 20.807-1.608h0.542c6.958 0.058 13.899 0.592 20.79 1.583 1.242 0.175 2.508 0.292 3.75 0.5 1.25 0.2 2 0.217 3.008 0.408l3.241-19.557zM713.753 204.857h-62.121l3.241 19.574c1.925-0.342 3.858-0.508 5.766-0.783 1.608-0.225 3.191-0.458 4.8-0.65 5.725-0.667 11.483-1.025 17.249-1.075h0.467c9.149 0.025 18.29 0.85 27.298 2.458zM849.693 374.662c-38.514-60.037-84.919-99.618-131.283-113.25-5.366-1.6-10.833-2.841-16.366-3.716l-2.292-0.325c-11.374-1.617-22.923-1.617-34.298 0-1.433 0.2-2.816 0.542-4.233 0.8-4.666 0.792-9.291 1.842-13.841 3.141-69.27 19.832-126.575 94.093-161.197 167.238 1.017 1.025 1.992 2.183 2.983 3.225 2.133 2.242 4.233 4.525 6.333 6.825 2.491 2.758 4.958 5.558 7.408 8.416 2.075 2.441 4.108 4.916 6.141 7.441 2.391 2.933 4.741 5.925 7.066 8.974 2 2.633 3.983 5.291 5.933 7.991 2.283 3.1 4.5 6.25 6.658 9.433 1.933 2.8 3.825 5.616 5.7 8.533 2.133 3.241 4.216 6.541 6.283 9.866 1.825 2.933 3.633 5.891 5.408 8.891 2 3.416 3.941 6.825 5.858 10.241 1.7 3.091 3.408 6.158 5.116 9.266 1.858 3.416 3.65 7 5.425 10.508 1.608 3.175 3.191 6.333 4.733 9.524 1.7 3.6 3.408 7.224 5.016 10.841 1.45 3.225 2.916 6.433 4.316 9.674 1.567 3.666 3.050 7.374 4.558 11.074 1.292 3.258 2.625 6.5 3.866 9.766 1.417 3.75 2.733 7.508 4.066 11.274 1.158 3.258 2.333 6.525 3.416 9.799 1.258 3.825 2.4 7.624 3.566 11.466 0.983 3.225 1.992 6.45 2.916 9.674 1.092 3.875 2.050 7.749 3.033 11.641 0.808 3.158 1.708 6.316 2.392 9.474 0.925 3.975 1.708 7.899 2.491 11.841 0.617 3.041 1.3 6.091 1.842 9.116 0.733 4.125 1.3 8.191 1.9 12.266 0.408 2.8 0.917 5.616 1.258 8.399 0.567 4.5 0.925 8.941 1.3 13.374 0.2 2.292 0.492 4.608 0.65 6.833 0.425 6.65 0.658 13.241 0.658 19.707 0 9.266-0.542 18.515-1.45 27.715-0.308 3.041-0.85 6.058-1.242 9.083-0.817 6.175-1.708 12.332-2.916 18.457-0.7 3.533-1.592 7.050-2.425 10.566-1.35 5.633-2.8 11.233-4.475 16.807-1.092 3.591-2.267 7.174-3.5 10.741-0.867 2.541-1.533 5.116-2.475 7.624 27.115 12.149 56.488 18.44 86.202 18.449h0.242c127.116 0 238.917-119.342 239.167-255.507-3.458-79.503-28.298-156.606-71.912-223.176z" />
<glyph unicode="&#xe901;" glyph-name="cake" d="M997.636 409.923c0.062 0.926 0.062 1.858 0 2.784-0.535 1.199-1.181 2.345-1.928 3.427l-1.928 2.57-381.010 364.091c-3.108 3.033-7.068 5.052-11.351 5.783-32.648 4.556-65.555 6.99-98.519 7.282-12.572 9.777-27.229 16.521-42.834 19.704-3.641 39.407 0.643 128.503 74.103 167.91 10.409 5.914 14.052 19.147 8.139 29.556s-19.147 14.052-29.556 8.139c-95.306-51.615-101.517-159.129-99.375-205.39-19.107-4.281-36.623-13.857-50.544-27.628-156.559-23.559-272.211-93.379-334.964-202.606v-2.356c-1.071-2.508-1.652-5.199-1.713-7.924v-382.51c-0.171-10.473 7.258-19.532 17.562-21.417l932.715-171.337c11.828 0 21.417 9.59 21.417 21.417v383.795c0 0 0 0 0 1.499 0.008 1.074-0.064 2.147-0.214 3.213zM438.221 776.37c34.067 0.118 61.778-27.401 61.895-61.467s-27.401-61.778-61.467-61.895c-34.067-0.118-61.778 27.401-61.895 61.467 0 0.072 0 0.142 0 0.214 0 33.981 27.484 61.563 61.467 61.681zM337.346 740.389v0c-2.203-8.318-3.354-16.882-3.427-25.486-1.692-57.698 43.707-105.843 101.405-107.535s105.843 43.707 107.535 101.405c0.452 15.423-2.517 30.755-8.69 44.896 24.201-1.285 42.834-3.427 51.401-4.498l325.112-310.762-826.272 152.49c52.9 76.245 138.14 126.147 252.936 149.491zM69.632 210.744v102.802l886.026-159.557 0.214-106.871-886.24 163.627zM69.632 357.023v64.251l886.026-159.557 0.214-64.68-886.24 159.986zM69.632 464.323v85.668l885.811-164.269 0.428-81.599-886.24 160.2z" />
<glyph unicode="&#xe902;" glyph-name="cutlery" d="M282.493 960.020c-30.94 41.256-72.71 63.974-117.614 63.974-44.902 0-86.67-22.72-117.612-63.972-29.426-39.234-45.63-91.032-45.63-145.854 0-54.824 16.204-106.62 45.632-145.854 17.21-22.946 37.776-40.136 60.36-50.892l-34.538-519.317c-1.684-25.306 7.29-50.442 24.618-68.96 17.33-18.522 41.818-29.146 67.182-29.146 25.358 0 49.834 10.618 67.158 29.13 17.328 18.52 26.302 43.66 24.614 68.972l-34.538 519.311c22.588 10.758 43.156 27.948 60.368 50.898 29.424 39.234 45.632 91.034 45.632 145.854s-16.204 106.622-45.632 145.856zM197.748 61.224c-8.6-9.192-20.27-14.254-32.858-14.254-12.598 0-24.276 5.066-32.884 14.264-8.604 9.2-12.884 21.184-12.050 33.75l33.908 509.867c3.652-0.306 7.318-0.516 11.016-0.516 3.696 0 7.36 0.212 11.010 0.516l33.908-509.867c0.834-12.572-3.442-24.562-12.050-33.76zM164.88 651.309c-8.414 0-16.616 1.29-24.528 3.678-0.656 0.242-1.32 0.464-2 0.648-51.366 16.862-89.744 81.518-89.744 158.532 0 89.798 52.16 162.858 116.272 162.858 64.114 0 116.276-73.058 116.276-162.858s-52.16-162.858-116.276-162.858zM1022.358 412.161v585.395l-0.198-0.086c0.678 5.174-0.348 10.606-3.306 15.392-6.82 11.032-21.29 14.446-32.328 7.626-95.81-59.234-153.018-161.832-153.036-274.457 0-0.016-0.002-0.030-0.002-0.044v-307.561c0-26.986 21.566-48.966 48.338-49.782v-318.041c0-38.746 31.522-70.268 70.268-70.268s70.27 31.522 70.27 70.268v341.441c-0.002 0.040-0.006 0.078-0.006 0.118zM883.348 435.531c-1.6 0.002-2.888 1.294-2.888 2.89v307.523c0 0.010 0.002 0.018 0.002 0.028 0 81.242 34.826 156.378 94.924 208.278v-518.719h-92.038zM975.392 70.598c0-12.846-10.45-23.298-23.3-23.298-12.846 0-23.298 10.45-23.298 23.298v317.961h46.598v-317.961zM665.597 1023.994c-12.97 0-23.486-10.514-23.486-23.486v-266.799h-59.84v266.799c0 12.97-10.516 23.486-23.486 23.486s-23.486-10.514-23.486-23.486v-266.799h-59.84v266.799c0 12.97-10.516 23.486-23.486 23.486s-23.486-10.514-23.486-23.486v-339.967c0-38.28 31.146-69.428 69.428-69.428h4.178l-32.95-495.299c-1.654-24.704 7.102-49.248 24.026-67.34 16.926-18.098 40.84-28.476 65.614-28.476 24.77 0 48.684 10.378 65.612 28.474 16.922 18.090 25.678 42.636 24.026 67.332l-32.952 495.309h4.186c38.284 0 69.43 31.146 69.43 69.428v339.969c-0.004 12.97-10.52 23.484-23.488 23.484zM590.089 60.562c-8.196-8.764-19.316-13.59-31.308-13.59s-23.112 4.826-31.308 13.59c-8.192 8.758-12.264 20.164-11.464 32.126l33.156 498.429h19.23l33.158-498.435c0.8-11.956-3.27-23.362-11.464-32.12zM642.109 660.543c0.002-12.384-10.072-22.456-22.456-22.456h-93.244c-0.030-0.002-0.062 0.002-0.092 0h-28.4c-12.384 0-22.456 10.072-22.456 22.456v26.2h166.648v-26.2z" />
<glyph unicode="&#xe903;" glyph-name="gift" d="M960 736.628h-202.496c14.528 9.92 27.008 19.776 35.712 28.608 51.584 51.904 51.584 136.384 0 188.288-50.112 50.432-137.536 50.496-187.712 0-27.712-27.84-101.376-141.184-91.2-216.896h-4.608c10.112 75.712-63.488 189.056-91.2 216.896-50.176 50.496-137.6 50.432-187.712 0-51.584-51.904-51.584-136.384-0.064-188.288 8.768-8.832 21.248-18.688 35.776-28.608h-202.496c-35.264 0-64-28.736-64-64v-160c0-17.664 14.336-32 32-32h32v-384c0-35.264 28.736-64 64-64h768c35.264 0 64 28.736 64 64v384h32c17.664 0 32 14.336 32 32v160c0 35.264-28.736 64-64 64zM276.16 908.404c12.992 13.056 30.208 20.224 48.512 20.224 18.24 0 35.456-7.168 48.448-20.224 43.136-43.392 86.016-154.24 71.104-169.664 0 0-2.688-2.112-11.84-2.112-44.224 0-128.64 45.952-156.224 73.728-26.816 27.008-26.816 71.040 0 98.048zM480 96.628h-352v384h352v-384zM480 544.628h-416v128h416v-128zM650.88 908.404c25.984 26.048 71.040 25.984 96.96 0 26.816-27.008 26.816-71.040 0-98.048-27.584-27.776-112-73.728-156.224-73.728-9.152 0-11.84 2.048-11.904 2.112-14.848 15.424 28.032 126.272 71.168 169.664zM896 96.628h-352v384h352v-384zM960 544.628h-416v128h416v-128z" />
<glyph unicode="&#xe904;" glyph-name="picnic" d="M960 624h-78.73l16.714 56.464 0.14 0.442c0 0.018 0 0.036 0 0.052l0.276 0.932c3.263 12.695 5.137 27.27 5.137 42.281 0 39.304-12.84 75.608-34.555 104.948l0.339-0.479 11.346 39 0.678-0.17c1.159-0.297 2.489-0.467 3.86-0.468v0c7.464 0.007 13.733 5.117 15.506 12.029l0.024 0.111 15.438 62.11c0.299 1.157 0.47 2.485 0.47 3.853 0 7.469-5.114 13.744-12.032 15.513l-0.111 0.024-124.218 30.89c-1.157 0.298-2.484 0.47-3.852 0.47-7.472 0-13.749-5.113-15.524-12.031l-0.024-0.111-15.436-62.11c-0.29-1.137-0.457-2.443-0.457-3.787 0-7.218 4.8-13.316 11.382-15.274l0.113-0.029-11.226-38.614c-22.929-11.111-42.297-26.097-58.043-44.304l-0.191-0.226c-16.955-19.795-29.691-43.726-36.498-70.043l-0.268-1.223-35.79-120.25h-38.468v304c0 35.346-28.654 64-64 64s-64-28.654-64-64v0-304h-32v176c-0.004 8.833-7.166 15.993-16 15.993-4.193 0-8.010-1.613-10.863-4.252l0.011 0.010-108.456-100.114-26.8 126.254c-11.117 51.078-55.944 88.768-109.575 88.768-61.863 0-112.013-50.15-112.013-112.013 0-8.233 0.888-16.258 2.574-23.985l-0.135 0.74 35.436-167.4h-6.178c-26.497-0.031-47.969-21.503-48-47.997v-32.003c0.031-26.497 21.503-47.969 47.997-48h33.741l23.8-206.216c-34.676-19.46-57.724-55.994-57.724-97.911 0-61.801 50.099-111.9 111.9-111.9 16.782 0 32.702 3.694 46.99 10.314l-0.692-0.288c15.42-6.271 33.306-9.937 52.041-10h475.869c45.603 0.104 86.221 21.361 112.574 54.476l0.226 0.294 32-32c11.582-11.581 27.581-18.744 45.254-18.744 35.347 0 64.002 28.655 64.002 64.002 0 17.675-7.164 33.676-18.748 45.258l-84.122 84.114 25.16 218.6h33.732c26.497 0.031 47.969 21.503 48 47.997v32.003c-0.031 26.497-21.503 47.969-47.997 48h-0.003zM881.258 933.438l-7.718-31.048-93.164 23.21 7.71 31zM711.32 794.672c14.387 16.665 32.251 29.918 52.505 38.699l0.941 0.363c4.426 1.903 7.766 5.609 9.135 10.168l0.029 0.114 13.6 46.782 62.060-15.432-13.27-45.616c-0.406-1.34-0.64-2.88-0.64-4.475 0-3.846 1.359-7.374 3.624-10.131l-0.022 0.028c20.102-24.619 32.281-56.394 32.281-91.013 0-6.624-0.446-13.144-1.309-19.532l0.082 0.745-184.442 45.772c6.267 16.732 14.872 31.161 25.594 43.729l-0.168-0.201zM676.566 720.472l185.88-46.12-16.058-50.352h-198.534zM498.75 589.242c-11.575-11.333-18.752-27.12-18.752-44.583 0-5.929 0.827-11.665 2.373-17.099l-0.107 0.44h-101.888l58.666 64h63.116c-1.112-0.958-2.358-1.702-3.408-2.75zM116.376 592h279.248l-139.624-152.328zM480 928c0 17.673 14.327 32 32 32s32-14.327 32-32v0-304h-64zM384 624h-151.078l151.078 139.454zM71.8 848.312c12.87 27.609 40.388 46.402 72.295 46.402 0.195 0 0.39-0.001 0.584-0.002h-0.030c0.128 0.001 0.279 0.001 0.43 0.001 19.953 0 38.16-7.473 51.976-19.772l-0.079 0.069c12.736-11.177 21.849-26.202 25.527-43.25l0.095-0.526 30.746-144.846-67.594-62.388h-82.86l-36.846 174.046c-1.1 4.967-1.73 10.673-1.73 16.526 0 12.248 2.759 23.852 7.691 34.224l-0.207-0.483zM48 544v32c0.009 8.833 7.167 15.991 15.999 16h8.959l8.6-9.386c0.058-0.060 0.104-0.12 0.162-0.178l49.904-54.436h-67.624c-8.833 0.009-15.991 7.167-16 15.999v0.001zM96 192c0.118 40 29.618 73.074 68.045 78.781l0.437 0.053c-1.505-5.686-2.732-12.515-3.433-19.499l-0.047-0.573c-3.788 0.982-7.063 2.195-10.176 3.693l0.33-0.143c-2.085 1.065-4.548 1.689-7.156 1.689-8.837 0-16.001-7.164-16.001-16.001 0-6.229 3.559-11.626 8.754-14.27l0.091-0.042c11.413-5.804 24.887-9.204 39.156-9.204s27.743 3.4 39.658 9.434l-0.502-0.23c5.286 2.686 8.845 8.083 8.845 14.312 0 8.837-7.164 16.001-16.001 16.001-2.608 0-5.071-0.624-7.247-1.731l0.091 0.042c-2.121-0.986-4.68-1.932-7.321-2.683l-0.383-0.093c0.859 6.565 2.17 12.432 3.946 18.094l-0.202-0.746c34.172-9.553 58.82-40.414 58.82-77.032 0-44.101-35.751-79.852-79.852-79.852s-79.852 35.751-79.852 79.852c0 0.052 0 0.104 0 0.156v-0.008zM255.886 113.644c14.405 14.644 24.814 33.26 29.433 54.056l0.139 0.744c3.759-9.325 7.542-17.062 11.79-24.499l-0.514 0.977 18.816-32.922h-41.472c-6.466 0.055-12.753 0.651-18.868 1.744l0.676-0.1zM407.11 270.532c0.012 0 0.026 0 0.040 0 11.774 0 22.152 5.978 28.264 15.064l0.077 0.122c7.465 11.084 19.967 18.278 34.149 18.278 20.677 0 37.783-15.291 40.625-35.183l0.026-0.219c1.061-7.134 1.667-15.368 1.667-23.744 0-30.915-8.255-59.901-22.682-84.876l0.437 0.82-23.242-40.64c-4.984-8.718-18.4-10.532-25.476-3.422l-22.578 22.578c-2.895 2.895-6.895 4.686-11.313 4.686s-8.418-1.791-11.313-4.686l-22.562-22.562c-2.97-2.739-6.954-4.419-11.33-4.419-5.936 0-11.151 3.091-14.121 7.752l-0.040 0.068-23.222 40.652c-13.988 24.162-22.243 53.156-22.243 84.078 0 8.428 0.613 16.713 1.797 24.812l-0.111-0.921c2.944 20.031 20.011 35.234 40.629 35.234 14.184 0 26.688-7.196 34.060-18.136l0.093-0.146c6.189-9.21 16.568-15.19 28.343-15.19 0.009 0 0.017 0 0.026 0h-0.001zM749.922 112h-251.236l18.822 32.922c16.634 28.733 26.449 63.211 26.449 99.982 0 10.015-0.728 19.861-2.134 29.486l0.131-1.095c-5.208 35.641-35.566 62.702-72.244 62.702-15.302 0-29.503-4.71-41.234-12.759l0.248 0.161c10.683 27.205 31.624 48.414 57.939 59.207l0.697 0.253 5.702 2.28c5.946 2.425 10.060 8.162 10.060 14.86 0 8.839-7.166 16.005-16.005 16.005-2.142 0-4.185-0.421-6.052-1.184l0.107 0.039-5.696-2.282c-40.946-16.746-71.453-51.633-81.829-94.391l-0.191-0.933c-12.885 11.631-30.041 18.747-48.859 18.747-36.754 0-67.168-27.147-72.285-62.484l-0.047-0.393c-0.896-6.194-1.521-13.56-1.734-21.030l-0.006-0.28c-13.808 21.539-34.203 37.809-58.308 46.113l-0.79 0.237c11.642 16.288 27.446 28.914 45.872 36.443l0.7 0.253 5.704 2.28c5.946 2.426 10.059 8.162 10.059 14.86 0 8.84-7.166 16.005-16.005 16.005-2.142 0-4.186-0.421-6.053-1.184l0.107 0.039-5.694-2.282c-29.502-12.075-53.228-33.242-68.223-59.968l-0.355-0.688c-0.518 0-1.020 0.078-1.54 0.078-8.367-0.012-16.511-0.94-24.346-2.69l0.746 0.14-22.446 194.55h31l83.246-90.812c2.935-3.197 7.134-5.194 11.8-5.194s8.865 1.997 11.789 5.183l83.253 90.824h150.458l338.364-338.37c-20.57-27.731-53.167-45.533-89.926-45.63h-0.016zM962.61 125.39c-5.871-5.615-13.846-9.071-22.629-9.071s-16.759 3.456-22.641 9.082l-395.964 395.974c-0.58 0.578-1 1.254-1.536 1.866-0.028 0.028-0.046 0.062-0.074 0.092-4.768 5.544-7.67 12.812-7.67 20.757 0 17.629 14.291 31.92 31.92 31.92 8.833 0 16.828-3.588 22.608-9.386l395.987-395.973c5.777-5.798 9.349-13.798 9.349-22.631s-3.572-16.833-9.35-22.632l0.001 0.001zM872.21 306.296l-189.706 189.704h211.55zM976 544c-0.009-8.833-7.167-15.991-15.999-16h-309.499l-61.252 61.25c-1.046 1.048-2.296 1.8-3.4 2.75h374.15c8.833-0.009 15.991-7.167 16-15.999v-0.001zM112.984 792.062c0.003 0 0.007 0 0.010 0 1.175 0 2.32 0.125 3.424 0.363l-0.106-0.019 62.618 13.266c7.3 1.587 12.687 7.992 12.687 15.656 0 8.839-7.165 16.004-16.004 16.004-1.175 0-2.32-0.127-3.423-0.367l0.106 0.019-62.616-13.266c-7.306-1.58-12.7-7.988-12.7-15.656 0-8.837 7.163-16 16-16 0.001 0 0.003 0 0.004 0v0zM122.954 761.11c-7.306-1.58-12.7-7.988-12.7-15.656 0-8.837 7.163-16 16-16 0.001 0 0.003 0 0.004 0v0c0.005 0 0.012 0 0.018 0 1.172 0 2.315 0.125 3.416 0.361l-0.106-0.019 62.614 13.266c7.3 1.587 12.688 7.993 12.688 15.657 0 8.839-7.165 16.005-16.005 16.005-1.175 0-2.32-0.127-3.423-0.367l0.106 0.019zM136.226 698.5c-7.306-1.58-12.7-7.988-12.7-15.656 0-8.837 7.163-16 16-16 0.002 0 0.004 0 0.006 0v0c0.002 0 0.005 0 0.007 0 1.176 0 2.323 0.125 3.427 0.363l-0.107-0.019 62.616 13.266c7.3 1.586 12.687 7.992 12.687 15.656 0 8.838-7.165 16.003-16.003 16.003-1.174 0-2.319-0.127-3.422-0.367l0.106 0.019zM360.8 247.156c-1.065-2.085-1.69-4.548-1.69-7.157 0-6.229 3.559-11.626 8.755-14.269l0.091-0.042c11.413-5.804 24.888-9.204 39.157-9.204s27.744 3.4 39.659 9.434l-0.502-0.23c5.286 2.686 8.845 8.083 8.845 14.312 0 8.838-7.164 16.002-16.002 16.002-2.609 0-5.072-0.624-7.248-1.732l0.091 0.042c-7.241-3.68-15.79-5.835-24.843-5.835s-17.602 2.156-25.162 5.982l0.319-0.146c-2.084 1.063-4.546 1.686-7.153 1.686-6.23 0-11.628-3.557-14.275-8.752l-0.042-0.091zM640 240h32v-32h-32zM576 240h32v-32h-32zM576 176h32v-32h-32zM576 368h32v-32h-32zM576 304h32v-32h-32zM704 240h32v-32h-32zM704 176h32v-32h-32zM640 176h32v-32h-32zM640 304h32v-32h-32z" />
<glyph unicode="&#xe905;" glyph-name="grill" d="M809.336 702.144h-32.8v82.824c-0.068 60.724-49.276 109.932-109.993 110h-1.455l-24.944 117.92c-1.383 6.392-6.988 11.111-13.696 11.112h-228.896c-6.708-0.001-12.313-4.72-13.679-11.020l-0.017-0.092-24.912-117.92h-1.448c-60.724-0.068-109.932-49.276-110-109.993v-82.831h-32.8c-7.732 0-14-6.268-14-14v0-84c0-7.732 6.268-14 14-14v0h36.904v-126c0-0.002 0-0.005 0-0.008 0-2.127 0.475-4.144 1.324-5.949l-0.036 0.085 64.688-140c2.274-4.838 7.108-8.128 12.709-8.128 0.001 0 0.002 0 0.003 0h31.008l-35.6-137.904c-38.359-9.872-66.248-44.152-66.248-84.946 0-48.371 39.213-87.584 87.584-87.584s87.584 39.213 87.584 87.584c0 25.085-10.546 47.707-27.446 63.674l-0.042 0.039 8.64 33.48h192.496l44.92-173.984c1.608-6.087 7.064-10.502 13.552-10.504h58c7.73 0.003 13.996 6.27 13.996 14 0 1.242-0.162 2.447-0.466 3.594l0.022-0.098-75.552 292.64h31.008c0.001 0 0.002 0 0.003 0 5.602 0 10.435 3.29 12.673 8.043l0.036 0.085 64.688 140c0.813 1.72 1.288 3.736 1.288 5.864 0 0.003 0 0.006 0 0.009v0 126.008h36.904c7.732 0 14 6.268 14 14v0 84c0 7.732-6.268 14-14 14v0zM408.904 996h206.192l21.344-101.032h-36.8l-11.392 53.92c-1.383 6.392-6.988 11.111-13.696 11.112h-125.104c-6.708-0.001-12.313-4.72-13.679-11.020l-0.017-0.092-11.392-53.92h-36.8zM571.024 894.968h-118.048l7.824 37.032h102.4zM275.496 784.968c0.050 45.267 36.733 81.95 81.995 82h309.005c45.267-0.050 81.95-36.733 82-81.995v-82.829h-473zM347.080 28c-32.84 0.045-59.451 26.656-59.496 59.492v0.004c0.39 32.565 26.879 58.814 59.5 58.814s59.11-26.249 59.5-58.777v-0.037c-0.045-32.843-26.66-59.455-59.5-59.496h-0.004zM378.96 168.896c-6.948 2.846-15.003 4.873-23.41 5.7l-0.358 0.028 34.984 135.512h29.088l-18.888-73.152-17.976-69.472c-1.096 0.488-2.28 0.936-3.44 1.384zM575.824 310.144l12.432-48.16h-152.512l12.432 48.16zM601.032 212.488h-178.064l2.912 11.288 2.64 10.216h166.96l3.712-14.4zM706.632 28h-29.032l-72.832 282.12h29.088zM744.4 467.2l-59.6-129.056h-345.6l-59.632 129.056v122.944h69.096v-107.48c0-7.732 6.268-14 14-14v0h298.672c7.732 0 14 6.268 14 14v0 107.48h69.096zM376.664 529.408h270.672v-32.744h-270.672zM647.336 557.408h-270.672v32.736h270.672zM795.336 618.144h-566.672v56h566.672zM347.080 111c-12.981 0-23.504-10.523-23.504-23.504s10.523-23.504 23.504-23.504c12.981 0 23.504 10.523 23.504 23.504v0c-0.009 12.977-10.527 23.495-23.503 23.504h-0.001zM347.080 83c-2.487 0-4.504 2.017-4.504 4.504s2.017 4.504 4.504 4.504c2.487 0 4.504-2.017 4.504-4.504 0-0.003 0-0.006 0-0.008v0c-0.005-2.484-2.019-4.496-4.504-4.496 0 0 0 0 0 0v0zM661.336 825.056h-298.672c-7.732 0-14-6.268-14-14v0-53c0-7.732 6.268-14 14-14v0h298.672c7.732 0 14 6.268 14 14v0 53c0 7.732-6.268 14-14 14v0zM647.336 772.056h-270.672v25h270.672z" />
<glyph unicode="&#xe906;" glyph-name="play" d="M879.393 532.078l-707.064 487.631c-7.485 5.145-17.189 5.681-25.186 1.512-8.022-4.218-13.044-12.508-13.044-21.578v-975.261c0-9.070 5.023-17.384 13.044-21.602 3.56-1.853 7.461-2.779 11.337-2.779 4.852 0 9.679 1.463 13.849 4.316l707.064 487.631c6.607 4.559 10.533 12.044 10.533 20.066s-3.95 15.507-10.533 20.066z" />
<glyph unicode="&#xe907;" glyph-name="down-arrow" d="M1007.633 763.864l-33.543 33.776c-10.556 10.548-24.601 16.359-39.612 16.359-15.002 0-29.064-5.811-39.62-16.359l-382.629-382.646-383.071 383.071c-10.54 10.548-24.601 16.351-39.603 16.351s-29.072-5.803-39.62-16.351l-33.551-33.567c-21.846-21.829-21.846-57.386 0-79.215l456.092-457.732c10.54-10.54 24.585-17.966 39.72-17.966h0.175c15.010 0 29.055 7.434 39.595 17.966l455.667 456.491c10.556 10.54 16.351 25.009 16.367 40.011 0 15.010-5.811 29.28-16.367 39.811z" />
<glyph unicode="&#xe908;" glyph-name="user" horiz-adv-x="862" d="M862.262 0.045h-69.681c0 175.030-180.893 351.448-361.472 351.448s-361.428-176.462-361.428-351.448h-69.681c3.117 233.259 192.937 421.152 426.642 421.152 1.586 0 3.17-0.009 4.752-0.026l-0.241 0.002c1.327 0.015 2.896 0.023 4.466 0.023 233.705 0 423.525-187.893 426.639-420.858l0.003-0.294zM431.153 454.872c-0.013 0-0.029 0-0.045 0-157.148 0-284.541 127.394-284.541 284.541s127.394 284.541 284.541 284.541c157.132 0 284.516-127.368 284.541-284.494v-0.002c-0.203-157.059-127.444-284.332-284.472-284.586h-0.025zM431.153 954.319c-112.796-13.491-201.325-102.020-214.702-213.652l-0.114-1.164c13.491-112.796 102.020-201.325 213.652-214.702l1.164-0.114c112.796 13.491 201.325 102.020 214.702 213.652l0.114 1.164c-13.523 112.78-102.035 201.293-213.649 214.702l-1.167 0.114z" />
<glyph unicode="&#xe909;" glyph-name="bag" horiz-adv-x="848" d="M847.030 42.705l-62.289 693.982c-1.74 18.835-17.458 33.47-36.597 33.482h-128.496v57.951c0.027 1.209 0.042 2.633 0.042 4.062 0 108.181-87.698 195.88-195.88 195.88s-195.88-87.698-195.88-195.88c0-1.428 0.015-2.853 0.046-4.273l-0.004 0.212v-57.951h-128.663c-19.14-0.012-34.859-14.647-36.588-33.337l-0.011-0.145-62.542-696.635c-0.094-0.984-0.147-2.128-0.147-3.285 0-20.298 16.449-36.755 36.744-36.767h774.003c20.306 0 36.767 16.461 36.767 36.767v0c-0.011 2.106-0.195 4.16-0.537 6.16l0.031-0.222zM301.422 828.12c0 67.581 54.786 122.367 122.367 122.367s122.367-54.786 122.367-122.367v0-57.951h-244.734zM76.945 73.492l55.972 623.312h94.971v-65.869h73.492v65.7h244.734v-65.7h73.492v65.7h94.887l55.972-623.312h-693.518z" />
</font>
</defs>
</svg>
