<svg width="328px" height="72px" viewBox="0 0 328 72" version="1.1" xmlns="http://www.w3.org/2000/svg" xmlns:xlink="http://www.w3.org/1999/xlink">
    <g id="Page-1" stroke="none" stroke-width="1" fill="none" fill-rule="evenodd">
        <g id="Logo" transform="translate(-467.000000, -458.000000)" fill="#F4F4FB" fill-rule="nonzero">
            <path d="M467,513 L488.01709,458.924316 L504.324219,458.924316 L525.341309,513 L510.500488,513 L506.856934,502.73584 L485.040039,502.73584 L481.307617,513 L467,513 Z M489.12793,491.716309 L502.946777,491.716309 L496.104004,472.520996 L489.12793,491.716309 Z M527.82959,492.60498 C527.82959,486.265756 529.843893,481.104105 533.872559,477.119873 C537.901225,473.135641 543.144336,471.143555 549.602051,471.143555 C554.01581,471.143555 557.896305,472.150706 561.243652,474.165039 L561.243652,486.162109 C558.251775,483.673816 554.860045,482.429688 551.068359,482.429688 C547.957992,482.429688 545.477141,483.31835 543.625732,485.095703 C541.774323,486.873056 540.848633,489.316879 540.848633,492.427246 C540.848633,495.419123 541.79654,497.870352 543.692383,499.781006 C545.588226,501.69166 548.19497,502.646973 551.512695,502.646973 C555.304381,502.646973 558.607245,501.462089 561.421387,499.092285 L561.421387,510.911621 C558.399887,512.896332 554.460148,513.888672 549.602051,513.888672 C542.818488,513.888672 537.493916,511.95583 533.628174,508.090088 C529.762432,504.224346 527.82959,499.062695 527.82959,492.60498 Z M567.108887,492.60498 C567.108887,486.265756 569.123189,481.104105 573.151855,477.119873 C577.180521,473.135641 582.423633,471.143555 588.881348,471.143555 C593.295107,471.143555 597.175602,472.150706 600.522949,474.165039 L600.522949,486.162109 C597.531072,483.673816 594.139342,482.429688 590.347656,482.429688 C587.237289,482.429688 584.756438,483.31835 582.905029,485.095703 C581.05362,486.873056 580.12793,489.316879 580.12793,492.427246 C580.12793,495.419123 581.075837,497.870352 582.97168,499.781006 C584.867522,501.69166 587.474267,502.646973 590.791992,502.646973 C594.583678,502.646973 597.886542,501.462089 600.700684,499.092285 L600.700684,510.911621 C597.679184,512.896332 593.739445,513.888672 588.881348,513.888672 C582.097785,513.888672 576.773213,511.95583 572.907471,508.090088 C569.041729,504.224346 567.108887,499.062695 567.108887,492.60498 Z M606.388184,493.182617 C606.388184,486.399055 608.269187,481.030049 612.03125,477.075439 C615.793313,473.12083 620.651337,471.143555 626.605469,471.143555 C629.863949,471.143555 632.685454,471.661941 635.070068,472.69873 C637.454683,473.73552 639.320875,475.194408 640.668701,477.075439 C642.016527,478.956471 642.994056,481.037423 643.601318,483.318359 C644.208581,485.599295 644.512207,488.146796 644.512207,490.960938 L644.512207,496.515137 L618.874023,496.515137 L618.874023,496.692871 C619.407229,498.736827 620.725413,500.284581 622.828613,501.336182 C624.931814,502.387782 627.286771,502.913574 629.893555,502.913574 C634.722029,502.913574 639.2394,501.817557 643.445801,499.625488 L643.445801,510.289551 C639.83185,512.688977 634.825716,513.888672 628.427246,513.888672 C621.584438,513.888672 616.200622,512.02248 612.275635,508.290039 C608.350648,504.557599 606.388184,499.521842 606.388184,493.182617 Z M618.962891,489.228027 L632.692871,489.228027 C632.692871,487.035959 632.18189,485.229011 631.159912,483.807129 C630.137934,482.385247 628.530935,481.674316 626.338867,481.674316 C624.324534,481.674316 622.680508,482.355625 621.406738,483.718262 C620.132969,485.080899 619.318361,486.917469 618.962891,489.228027 Z M652.910156,529.395996 L652.910156,474.875977 C655.39845,473.809565 658.338443,472.920902 661.730225,472.209961 C665.122006,471.49902 668.550764,471.143555 672.016602,471.143555 C678.711296,471.143555 684.132141,472.972719 688.279297,476.631104 C692.426453,480.289488 694.5,485.228973 694.5,491.449707 C694.5,498.647985 692.500508,504.187318 688.501465,508.067871 C684.502421,511.948424 678.859411,513.888672 671.572266,513.888672 C669.232085,513.888672 667.321459,513.710939 665.840332,513.355469 L665.840332,529.395996 L652.910156,529.395996 Z M665.840332,502.069336 C667.232592,502.513674 668.772941,502.73584 670.461426,502.73584 C673.690283,502.73584 676.319244,501.854582 678.348389,500.092041 C680.377533,498.3295 681.39209,495.626483 681.39209,491.98291 C681.39209,489.020656 680.496021,486.732349 678.703857,485.11792 C676.911694,483.503491 674.593764,482.696289 671.75,482.696289 C669.469064,482.696289 667.499194,482.99251 665.840332,483.584961 L665.840332,502.069336 Z M696.988281,482.785156 L696.988281,472.032227 L703.075684,472.032227 L703.075684,461.945801 L715.916992,461.945801 L715.916992,472.032227 L727.647461,472.032227 L727.647461,482.785156 L715.916992,482.785156 L715.916992,496.248535 C715.916992,498.381358 716.38354,499.869869 717.31665,500.714111 C718.249761,501.558354 719.575349,501.980469 721.293457,501.980469 C724.018731,501.980469 726.506987,501.225105 728.758301,499.714355 L728.758301,511.533691 C725.796046,513.103686 722.093284,513.888672 717.649902,513.888672 C715.694814,513.888672 713.880461,513.64429 712.206787,513.155518 C710.533113,512.666746 708.992764,511.896571 707.585693,510.844971 C706.178623,509.79337 705.075199,508.341888 704.275391,506.490479 C703.475582,504.63907 703.075684,502.469251 703.075684,499.980957 L703.075684,482.785156 L696.988281,482.785156 Z M734.090332,501.091797 C734.090332,496.855773 735.638087,493.701019 738.733643,491.627441 C741.829198,489.553863 746.250297,488.51709 751.99707,488.51709 L756.351562,488.51709 L756.351562,486.873047 C756.351562,485.214184 755.714687,483.999678 754.440918,483.229492 C753.167149,482.459306 751.508311,482.074219 749.464355,482.074219 C745.257954,482.074219 741.347837,483.185047 737.733887,485.406738 L737.733887,474.520508 C741.584817,472.269194 746.27992,471.143555 751.819336,471.143555 C763.342506,471.143555 769.104004,476.208934 769.104004,486.339844 L769.104004,512.111328 C763.771946,513.29623 758.18818,513.888672 752.352539,513.888672 C740.177674,513.888672 734.090332,509.62309 734.090332,501.091797 Z M746.887207,500.425293 C746.887207,501.817553 747.353755,502.869137 748.286865,503.580078 C749.219975,504.291019 750.515942,504.646484 752.174805,504.646484 C753.685554,504.646484 755.077793,504.513185 756.351562,504.246582 L756.351562,496.337402 L752.930176,496.337402 C748.90151,496.337402 746.887207,497.700019 746.887207,500.425293 Z M777.990723,505.535156 C777.990723,503.25422 778.797925,501.306567 780.412354,499.692139 C782.026782,498.07771 783.959624,497.270508 786.210938,497.270508 C788.491873,497.270508 790.439526,498.085116 792.053955,499.714355 C793.668384,501.343595 794.475586,503.283843 794.475586,505.535156 C794.475586,507.78647 793.668384,509.711906 792.053955,511.311523 C790.439526,512.911141 788.491873,513.710938 786.210938,513.710938 C783.930002,513.710938 781.989754,512.911141 780.390137,511.311523 C778.790519,509.711906 777.990723,507.78647 777.990723,505.535156 Z" id="Accepta."></path>
        </g>
    </g>
</svg>